/videos/9c11942a-89d9-a8ee-6a4f-89b66a534d2f/hls1/main/0.ts

{"Protocol":0,"Id":"9c11942a89d9a8ee6a4f89b66a534d2f","Path":"/data/tvshows/Top Gear/Season 22/Top Gear - S22E01 - Episode 1 WEBDL-720p.mkv","EncoderPath":null,"EncoderProtocol":null,"Type":0,"Container":"mkv,webm","Size":2813625489,"Name":"Top Gear - S22E01 - Episode 1 WEBDL-720p","IsRemote":false,"ETag":"1c7e93e13036f35dc00677d833827177","RunTimeTicks":37458240000,"ReadAtNativeFramerate":false,"IgnoreDts":false,"IgnoreIndex":false,"GenPtsInput":false,"SupportsTranscoding":true,"SupportsDirectStream":true,"SupportsDirectPlay":true,"IsInfiniteStream":false,"RequiresOpening":false,"OpenToken":null,"RequiresClosing":false,"LiveStreamId":null,"BufferMs":null,"RequiresLooping":false,"SupportsProbing":true,"VideoType":0,"IsoType":null,"Video3DFormat":null,"MediaStreams":[{"Codec":"h264","CodecTag":null,"Language":"eng","ColorRange":null,"ColorSpace":"bt709","ColorTransfer":"bt709","ColorPrimaries":"bt709","DvVersionMajor":null,"DvVersionMinor":null,"DvProfile":null,"DvLevel":null,"RpuPresentFlag":null,"ElPresentFlag":null,"BlPresentFlag":null,"DvBlSignalCompatibilityId":null,"Comment":null,"TimeBase":"1/1000","CodecTimeBase":null,"Title":null,"VideoRange":"SDR","VideoRangeType":"SDR","VideoDoViTitle":null,"LocalizedUndefined":null,"LocalizedDefault":null,"LocalizedForced":null,"LocalizedExternal":null,"DisplayTitle":"720p H264 SDR","NalLengthSize":"4","IsInterlaced":false,"IsAVC":true,"ChannelLayout":null,"BitRate":6009092,"BitDepth":8,"RefFrames":1,"PacketLength":null,"Channels":null,"SampleRate":null,"IsDefault":true,"IsForced":false,"Height":720,"Width":1280,"AverageFrameRate":25,"RealFrameRate":25,"Profile":"High","Type":1,"AspectRatio":"16:9","Index":0,"Score":null,"IsExternal":false,"DeliveryMethod":null,"DeliveryUrl":null,"IsExternalUrl":null,"IsTextSubtitleStream":false,"SupportsExternalStream":false,"Path":null,"PixelFormat":"yuv420p","Level":31,"IsAnamorphic":null},{"Codec":"eac3","CodecTag":null,"Language":"eng","ColorRange":null,"ColorSpace":null,"ColorTransfer":null,"ColorPrimaries":null,"DvVersionMajor":null,"DvVersionMinor":null,"DvProfile":null,"DvLevel":null,"RpuPresentFlag":null,"ElPresentFlag":null,"BlPresentFlag":null,"DvBlSignalCompatibilityId":null,"Comment":null,"TimeBase":"1/1000","CodecTimeBase":null,"Title":"English","VideoRange":null,"VideoRangeType":null,"VideoDoViTitle":null,"LocalizedUndefined":null,"LocalizedDefault":null,"LocalizedForced":null,"LocalizedExternal":null,"DisplayTitle":"English - Dolby Digital\u002B - Stereo - Default","NalLengthSize":null,"IsInterlaced":false,"IsAVC":null,"ChannelLayout":"stereo","BitRate":224000,"BitDepth":null,"RefFrames":null,"PacketLength":null,"Channels":2,"SampleRate":48000,"IsDefault":true,"IsForced":false,"Height":null,"Width":null,"AverageFrameRate":null,"RealFrameRate":null,"Profile":null,"Type":0,"AspectRatio":null,"Index":1,"Score":null,"IsExternal":false,"DeliveryMethod":null,"DeliveryUrl":null,"IsExternalUrl":null,"IsTextSubtitleStream":false,"SupportsExternalStream":false,"Path":null,"PixelFormat":null,"Level":0,"IsAnamorphic":null},{"Codec":"subrip","CodecTag":null,"Language":"eng","ColorRange":null,"ColorSpace":null,"ColorTransfer":null,"ColorPrimaries":null,"DvVersionMajor":null,"DvVersionMinor":null,"DvProfile":null,"DvLevel":null,"RpuPresentFlag":null,"ElPresentFlag":null,"BlPresentFlag":null,"DvBlSignalCompatibilityId":null,"Comment":null,"TimeBase":"1/1000","CodecTimeBase":null,"Title":"English (SDH)","VideoRange":null,"VideoRangeType":null,"VideoDoViTitle":null,"LocalizedUndefined":"Undefined","LocalizedDefault":"Default","LocalizedForced":"Forced","LocalizedExternal":"External","DisplayTitle":"English (SDH) - SUBRIP","NalLengthSize":null,"IsInterlaced":false,"IsAVC":null,"ChannelLayout":null,"BitRate":null,"BitDepth":null,"RefFrames":null,"PacketLength":null,"Channels":null,"SampleRate":null,"IsDefault":false,"IsForced":false,"Height":null,"Width":null,"AverageFrameRate":null,"RealFrameRate":null,"Profile":null,"Type":2,"AspectRatio":null,"Index":2,"Score":null,"IsExternal":false,"DeliveryMethod":null,"DeliveryUrl":null,"IsExternalUrl":null,"IsTextSubtitleStream":true,"SupportsExternalStream":true,"Path":null,"PixelFormat":null,"Level":0,"IsAnamorphic":null}],"MediaAttachments":[],"Formats":[],"Bitrate":6233092,"Timestamp":null,"RequiredHttpHeaders":{},"TranscodingUrl":null,"TranscodingSubProtocol":null,"TranscodingContainer":null,"AnalyzeDurationMs":null,"DefaultAudioStreamIndex":null,"DefaultSubtitleStreamIndex":null}

/usr/lib/jellyfin-ffmpeg/ffmpeg -analyzeduration 200M -fflags +genpts -f matroska,webm  -i file:"/data/tvshows/Top Gear/Season 22/Top Gear - S22E01 - Episode 1 WEBDL-720p.mkv" -map_metadata -1 -map_chapters -1 -threads 0 -map 0:0 -map 0:1 -map -0:s -codec:v:0 copy -bsf:v h264_mp4toannexb -start_at_zero -codec:a:0 libfdk_aac -ac 2 -ab 256000 -copyts -avoid_negative_ts disabled -max_muxing_queue_size 2048 -f hls -max_delay 5000000 -hls_time 6 -hls_segment_type mpegts -start_number 0 -hls_segment_filename "/data/transcodes/56330b9d4cc1398765263a4770ae6f32%d.ts" -hls_playlist_type vod -hls_list_size 0 -y "/data/transcodes/56330b9d4cc1398765263a4770ae6f32.m3u8"


ffmpeg version 5.1.3-Jellyfin Copyright (c) 2000-2022 the FFmpeg developers
  built with gcc 11 (Ubuntu 11.3.0-1ubuntu1~22.04.1)
  configuration: --prefix=/usr/lib/jellyfin-ffmpeg --target-os=linux --extra-libs=-lfftw3f --extra-version=Jellyfin --disable-doc --disable-ffplay --disable-ptx-compression --disable-static --disable-libxcb --disable-sdl2 --disable-xlib --enable-lto --enable-gpl --enable-version3 --enable-shared --enable-gmp --enable-gnutls --enable-chromaprint --enable-libdrm --enable-libass --enable-libfreetype --enable-libfribidi --enable-libfontconfig --enable-libbluray --enable-libmp3lame --enable-libopus --enable-libtheora --enable-libvorbis --enable-libopenmpt --enable-libdav1d --enable-libwebp --enable-libvpx --enable-libx264 --enable-libx265 --enable-libzvbi --enable-libzimg --enable-libfdk-aac --arch=amd64 --enable-libsvtav1 --enable-libshaderc --enable-libplacebo --enable-vulkan --enable-opencl --enable-vaapi --enable-amf --enable-libmfx --enable-ffnvcodec --enable-cuda --enable-cuda-llvm --enable-cuvid --enable-nvdec --enable-nvenc
  libavutil      57. 28.100 / 57. 28.100
  libavcodec     59. 37.100 / 59. 37.100
  libavformat    59. 27.100 / 59. 27.100
  libavdevice    59.  7.100 / 59.  7.100
  libavfilter     8. 44.100 /  8. 44.100
  libswscale      6.  7.100 /  6.  7.100
  libswresample   4.  7.100 /  4.  7.100
  libpostproc    56.  6.100 / 56.  6.100
Input #0, matroska,webm, from 'file:/data/tvshows/Top Gear/Season 22/Top Gear - S22E01 - Episode 1 WEBDL-720p.mkv':
  Metadata:
    encoder         : libebml v1.4.0 + libmatroska v1.6.2
  Duration: 01:02:25.82, start: 0.000000, bitrate: 6009 kb/s
  Stream #0:0(eng): Video: h264 (High), yuv420p(tv, bt709, progressive), 1280x720 [SAR 1:1 DAR 16:9], 25 fps, 25 tbr, 1k tbn (default)
    Metadata:
      BPS-eng         : 5782961
      DURATION-eng    : 01:02:25.800000000
      NUMBER_OF_FRAMES-eng: 93645
      NUMBER_OF_BYTES-eng: 2707727100
      _STATISTICS_WRITING_APP-eng: mkvmerge v51.0.0 ('I Wish') 64-bit
      _STATISTICS_WRITING_DATE_UTC-eng: 2020-12-30 10:27:52
      _STATISTICS_TAGS-eng: BPS DURATION NUMBER_OF_FRAMES NUMBER_OF_BYTES
  Stream #0:1(eng): Audio: eac3, 48000 Hz, stereo, fltp, 224 kb/s (default)
    Metadata:
      title           : English
      BPS-eng         : 224000
      DURATION-eng    : 01:02:25.824000000
      NUMBER_OF_FRAMES-eng: 117057
      NUMBER_OF_BYTES-eng: 104883072
      _STATISTICS_WRITING_APP-eng: mkvmerge v51.0.0 ('I Wish') 64-bit
      _STATISTICS_WRITING_DATE_UTC-eng: 2020-12-30 10:27:52
      _STATISTICS_TAGS-eng: BPS DURATION NUMBER_OF_FRAMES NUMBER_OF_BYTES
  Stream #0:2(eng): Subtitle: subrip
    Metadata:
      title           : English (SDH)
      BPS-eng         : 94
      DURATION-eng    : 01:01:35.720000000
      NUMBER_OF_FRAMES-eng: 1173
      NUMBER_OF_BYTES-eng: 43588
      _STATISTICS_WRITING_APP-eng: mkvmerge v51.0.0 ('I Wish') 64-bit
      _STATISTICS_WRITING_DATE_UTC-eng: 2020-12-30 10:27:52
      _STATISTICS_TAGS-eng: BPS DURATION NUMBER_OF_FRAMES NUMBER_OF_BYTES
Stream mapping:
  Stream #0:0 -> #0:0 (copy)
  Stream #0:1 -> #0:1 (eac3 (native) -> aac (libfdk_aac))
Press [q] to stop, [?] for help
Output #0, hls, to '/data/transcodes/56330b9d4cc1398765263a4770ae6f32.m3u8':
  Metadata:
    encoder         : Lavf59.27.100
  Stream #0:0: Video: h264 (High), yuv420p(tv, bt709, progressive), 1280x720 [SAR 1:1 DAR 16:9], q=2-31, 25 fps, 25 tbr, 90k tbn (default)
  Stream #0:1: Audio: aac, 48000 Hz, stereo, s16, 256 kb/s (default)
    Metadata:
      encoder         : Lavc59.37.100 libfdk_aac
frame=    1 fps=0.0 q=-1.0 size=N/A time=-00:00:00.02 bitrate=N/A speed=N/A    
[hls @ 0x55b04ce66300] Opening '/data/transcodes/56330b9d4cc1398765263a4770ae6f320.ts' for writing
[hls @ 0x55b04ce66300] Opening '/data/transcodes/56330b9d4cc1398765263a4770ae6f321.ts' for writing
[hls @ 0x55b04ce66300] Opening '/data/transcodes/56330b9d4cc1398765263a4770ae6f322.ts' for writing
frame=  468 fps=0.0 q=-1.0 size=N/A time=00:00:00.32 bitrate=N/A speed=0.65x    
[hls @ 0x55b04ce66300] Opening '/data/transcodes/56330b9d4cc1398765263a4770ae6f323.ts' for writing
[hls @ 0x55b04ce66300] Opening '/data/transcodes/56330b9d4cc1398765263a4770ae6f324.ts' for writing
[hls @ 0x55b04ce66300] Opening '/data/transcodes/56330b9d4cc1398765263a4770ae6f325.ts' for writing
frame=  968 fps=967 q=-1.0 size=N/A time=00:00:20.12 bitrate=N/A speed=20.1x    
[hls @ 0x55b04ce66300] Opening '/data/transcodes/56330b9d4cc1398765263a4770ae6f326.ts' for writing
[hls @ 0x55b04ce66300] Opening '/data/transcodes/56330b9d4cc1398765263a4770ae6f327.ts' for writing
[hls @ 0x55b04ce66300] Opening '/data/transcodes/56330b9d4cc1398765263a4770ae6f328.ts' for writing
frame= 1469 fps=979 q=-1.0 size=N/A time=00:00:40.13 bitrate=N/A speed=26.7x    
[hls @ 0x55b04ce66300] Opening '/data/transcodes/56330b9d4cc1398765263a4770ae6f329.ts' for writing
[hls @ 0x55b04ce66300] Opening '/data/transcodes/56330b9d4cc1398765263a4770ae6f3210.ts' for writing
[hls @ 0x55b04ce66300] Opening '/data/transcodes/56330b9d4cc1398765263a4770ae6f3211.ts' for writing
frame= 1942 fps=970 q=-1.0 size=N/A time=00:00:59.29 bitrate=N/A speed=29.6x    
[hls @ 0x55b04ce66300] Opening '/data/transcodes/56330b9d4cc1398765263a4770ae6f3212.ts' for writing
[hls @ 0x55b04ce66300] Opening '/data/transcodes/56330b9d4cc1398765263a4770ae6f3213.ts' for writing
[hls @ 0x55b04ce66300] Opening '/data/transcodes/56330b9d4cc1398765263a4770ae6f3214.ts' for writing
[hls @ 0x55b04ce66300] Opening '/data/transcodes/56330b9d4cc1398765263a4770ae6f3215.ts' for writing
frame= 2407 fps=962 q=-1.0 size=N/A time=00:01:17.63 bitrate=N/A speed=  31x    
[hls @ 0x55b04ce66300] Opening '/data/transcodes/56330b9d4cc1398765263a4770ae6f3216.ts' for writing
[hls @ 0x55b04ce66300] Opening '/data/transcodes/56330b9d4cc1398765263a4770ae6f3217.ts' for writing
frame= 2757 fps=918 q=-1.0 size=N/A time=00:01:31.80 bitrate=N/A speed=30.6x    
[hls @ 0x55b04ce66300] Opening '/data/transcodes/56330b9d4cc1398765263a4770ae6f3218.ts' for writing
[hls @ 0x55b04ce66300] Opening '/data/transcodes/56330b9d4cc1398765263a4770ae6f3219.ts' for writing
[hls @ 0x55b04ce66300] Opening '/data/transcodes/56330b9d4cc1398765263a4770ae6f3220.ts' for writing
frame= 3205 fps=915 q=-1.0 size=N/A time=00:01:49.59 bitrate=N/A speed=31.3x    
[hls @ 0x55b04ce66300] Opening '/data/transcodes/56330b9d4cc1398765263a4770ae6f3221.ts' for writing
[hls @ 0x55b04ce66300] Opening '/data/transcodes/56330b9d4cc1398765263a4770ae6f3222.ts' for writing
[hls @ 0x55b04ce66300] Opening '/data/transcodes/56330b9d4cc1398765263a4770ae6f3223.ts' for writing
frame= 3681 fps=920 q=-1.0 size=N/A time=00:02:08.79 bitrate=N/A speed=32.2x    
[hls @ 0x55b04ce66300] Opening '/data/transcodes/56330b9d4cc1398765263a4770ae6f3224.ts' for writing
[hls @ 0x55b04ce66300] Opening '/data/transcodes/56330b9d4cc1398765263a4770ae6f3225.ts' for writing
[hls @ 0x55b04ce66300] Opening '/data/transcodes/56330b9d4cc1398765263a4770ae6f3226.ts' for writing
frame= 4112 fps=913 q=-1.0 size=N/A time=00:02:26.01 bitrate=N/A speed=32.4x    
[hls @ 0x55b04ce66300] Opening '/data/transcodes/56330b9d4cc1398765263a4770ae6f3227.ts' for writing
[hls @ 0x55b04ce66300] Opening '/data/transcodes/56330b9d4cc1398765263a4770ae6f3228.ts' for writing
[hls @ 0x55b04ce66300] Opening '/data/transcodes/56330b9d4cc1398765263a4770ae6f3229.ts' for writing
frame= 4563 fps=912 q=-1.0 size=N/A time=00:02:43.99 bitrate=N/A speed=32.8x    
[hls @ 0x55b04ce66300] Opening '/data/transcodes/56330b9d4cc1398765263a4770ae6f3230.ts' for writing
[hls @ 0x55b04ce66300] Opening '/data/transcodes/56330b9d4cc1398765263a4770ae6f3231.ts' for writing
[hls @ 0x55b04ce66300] Opening '/data/transcodes/56330b9d4cc1398765263a4770ae6f3232.ts' for writing
frame= 5011 fps=910 q=-1.0 size=N/A time=00:03:01.91 bitrate=N/A speed=33.1x    
[hls @ 0x55b04ce66300] Opening '/data/transcodes/56330b9d4cc1398765263a4770ae6f3233.ts' for writing
[hls @ 0x55b04ce66300] Opening '/data/transcodes/56330b9d4cc1398765263a4770ae6f3234.ts' for writing
[hls @ 0x55b04ce66300] Opening '/data/transcodes/56330b9d4cc1398765263a4770ae6f3235.ts' for writing
[hls @ 0x55b04ce66300] Opening '/data/transcodes/56330b9d4cc1398765263a4770ae6f3236.ts' for writing
frame= 5592 fps=931 q=-1.0 size=N/A time=00:03:25.14 bitrate=N/A speed=34.2x    
[hls @ 0x55b04ce66300] Opening '/data/transcodes/56330b9d4cc1398765263a4770ae6f3237.ts' for writing
[hls @ 0x55b04ce66300] Opening '/data/transcodes/56330b9d4cc1398765263a4770ae6f3238.ts' for writing
[hls @ 0x55b04ce66300] Opening '/data/transcodes/56330b9d4cc1398765263a4770ae6f3239.ts' for writing
frame= 6032 fps=927 q=-1.0 size=N/A time=00:03:42.68 bitrate=N/A speed=34.2x    
[hls @ 0x55b04ce66300] Opening '/data/transcodes/56330b9d4cc1398765263a4770ae6f3240.ts' for writing
[hls @ 0x55b04ce66300] Opening '/data/transcodes/56330b9d4cc1398765263a4770ae6f3241.ts' for writing
[hls @ 0x55b04ce66300] Opening '/data/transcodes/56330b9d4cc1398765263a4770ae6f3242.ts' for writing
frame= 6451 fps=920 q=-1.0 size=N/A time=00:03:59.32 bitrate=N/A speed=34.1x    
[hls @ 0x55b04ce66300] Opening '/data/transcodes/56330b9d4cc1398765263a4770ae6f3243.ts' for writing
[hls @ 0x55b04ce66300] Opening '/data/transcodes/56330b9d4cc1398765263a4770ae6f3244.ts' for writing
[hls @ 0x55b04ce66300] Opening '/data/transcodes/56330b9d4cc1398765263a4770ae6f3245.ts' for writing
frame= 6968 fps=928 q=-1.0 size=N/A time=00:04:20.22 bitrate=N/A speed=34.7x    
[hls @ 0x55b04ce66300] Opening '/data/transcodes/56330b9d4cc1398765263a4770ae6f3246.ts' for writing
[hls @ 0x55b04ce66300] Opening '/data/transcodes/56330b9d4cc1398765263a4770ae6f3247.ts' for writing
[hls @ 0x55b04ce66300] Opening '/data/transcodes/56330b9d4cc1398765263a4770ae6f3248.ts' for writing
frame= 7469 fps=932 q=-1.0 size=N/A time=00:04:40.21 bitrate=N/A speed=  35x    
[hls @ 0x55b04ce66300] Opening '/data/transcodes/56330b9d4cc1398765263a4770ae6f3249.ts' for writing
[hls @ 0x55b04ce66300] Opening '/data/transcodes/56330b9d4cc1398765263a4770ae6f3250.ts' for writing
[hls @ 0x55b04ce66300] Opening '/data/transcodes/56330b9d4cc1398765263a4770ae6f3251.ts' for writing
frame= 7944 fps=933 q=-1.0 size=N/A time=00:04:59.14 bitrate=N/A speed=35.2x    
[hls @ 0x55b04ce66300] Opening '/data/transcodes/56330b9d4cc1398765263a4770ae6f3252.ts' for writing
[hls @ 0x55b04ce66300] Opening '/data/transcodes/56330b9d4cc1398765263a4770ae6f3253.ts' for writing
[hls @ 0x55b04ce66300] Opening '/data/transcodes/56330b9d4cc1398765263a4770ae6f3254.ts' for writing
[hls @ 0x55b04ce66300] Opening '/data/transcodes/56330b9d4cc1398765263a4770ae6f3255.ts' for writing
frame= 8458 fps=939 q=-1.0 size=N/A time=00:05:19.81 bitrate=N/A speed=35.5x    
[hls @ 0x55b04ce66300] Opening '/data/transcodes/56330b9d4cc1398765263a4770ae6f3256.ts' for writing
[hls @ 0x55b04ce66300] Opening '/data/transcodes/56330b9d4cc1398765263a4770ae6f3257.ts' for writing
[hls @ 0x55b04ce66300] Opening '/data/transcodes/56330b9d4cc1398765263a4770ae6f3258.ts' for writing
[hls @ 0x55b04ce66300] Opening '/data/transcodes/56330b9d4cc1398765263a4770ae6f3259.ts' for writing
frame= 9105 fps=957 q=-1.0 size=N/A time=00:05:45.69 bitrate=N/A speed=36.3x    
[hls @ 0x55b04ce66300] Opening '/data/transcodes/56330b9d4cc1398765263a4770ae6f3260.ts' for writing
[hls @ 0x55b04ce66300] Opening '/data/transcodes/56330b9d4cc1398765263a4770ae6f3261.ts' for writing
[hls @ 0x55b04ce66300] Opening '/data/transcodes/56330b9d4cc1398765263a4770ae6f3262.ts' for writing
frame= 9551 fps=954 q=-1.0 size=N/A time=00:06:03.35 bitrate=N/A speed=36.3x    
[hls @ 0x55b04ce66300] Opening '/data/transcodes/56330b9d4cc1398765263a4770ae6f3263.ts' for writing
[hls @ 0x55b04ce66300] Opening '/data/transcodes/56330b9d4cc1398765263a4770ae6f3264.ts' for writing
[hls @ 0x55b04ce66300] Opening '/data/transcodes/56330b9d4cc1398765263a4770ae6f3265.ts' for writing
frame= 9983 fps=950 q=-1.0 size=N/A time=00:06:20.82 bitrate=N/A speed=36.2x    
[hls @ 0x55b04ce66300] Opening '/data/transcodes/56330b9d4cc1398765263a4770ae6f3266.ts' for writing
[hls @ 0x55b04ce66300] Opening '/data/transcodes/56330b9d4cc1398765263a4770ae6f3267.ts' for writing
[hls @ 0x55b04ce66300] Opening '/data/transcodes/56330b9d4cc1398765263a4770ae6f3268.ts' for writing
[hls @ 0x55b04ce66300] Opening '/data/transcodes/56330b9d4cc1398765263a4770ae6f3269.ts' for writing
frame=10569 fps=960 q=-1.0 size=N/A time=00:06:44.22 bitrate=N/A speed=36.7x    
[hls @ 0x55b04ce66300] Opening '/data/transcodes/56330b9d4cc1398765263a4770ae6f3270.ts' for writing
[hls @ 0x55b04ce66300] Opening '/data/transcodes/56330b9d4cc1398765263a4770ae6f3271.ts' for writing
[hls @ 0x55b04ce66300] Opening '/data/transcodes/56330b9d4cc1398765263a4770ae6f3272.ts' for writing
[hls @ 0x55b04ce66300] Opening '/data/transcodes/56330b9d4cc1398765263a4770ae6f3273.ts' for writing
frame=11101 fps=963 q=-1.0 size=N/A time=00:07:05.34 bitrate=N/A speed=36.9x    
[hls @ 0x55b04ce66300] Opening '/data/transcodes/56330b9d4cc1398765263a4770ae6f3274.ts' for writing
[hls @ 0x55b04ce66300] Opening '/data/transcodes/56330b9d4cc1398765263a4770ae6f3275.ts' for writing
[hls @ 0x55b04ce66300] Opening '/data/transcodes/56330b9d4cc1398765263a4770ae6f3276.ts' for writing
frame=11563 fps=962 q=-1.0 size=N/A time=00:07:24.03 bitrate=N/A speed=36.9x    
[hls @ 0x55b04ce66300] Opening '/data/transcodes/56330b9d4cc1398765263a4770ae6f3277.ts' for writing
[hls @ 0x55b04ce66300] Opening '/data/transcodes/56330b9d4cc1398765263a4770ae6f3278.ts' for writing
[hls @ 0x55b04ce66300] Opening '/data/transcodes/56330b9d4cc1398765263a4770ae6f3279.ts' for writing
frame=12023 fps=960 q=-1.0 size=N/A time=00:07:42.29 bitrate=N/A speed=36.9x    
[hls @ 0x55b04ce66300] Opening '/data/transcodes/56330b9d4cc1398765263a4770ae6f3280.ts' for writing
[hls @ 0x55b04ce66300] Opening '/data/transcodes/56330b9d4cc1398765263a4770ae6f3281.ts' for writing
[hls @ 0x55b04ce66300] Opening '/data/transcodes/56330b9d4cc1398765263a4770ae6f3282.ts' for writing
frame=12470 fps=958 q=-1.0 size=N/A time=00:08:00.21 bitrate=N/A speed=36.9x    
[hls @ 0x55b04ce66300] Opening '/data/transcodes/56330b9d4cc1398765263a4770ae6f3283.ts' for writing
[hls @ 0x55b04ce66300] Opening '/data/transcodes/56330b9d4cc1398765263a4770ae6f3284.ts' for writing
[hls @ 0x55b04ce66300] Opening '/data/transcodes/56330b9d4cc1398765263a4770ae6f3285.ts' for writing
frame=12933 fps=956 q=-1.0 size=N/A time=00:08:18.69 bitrate=N/A speed=36.9x    
[hls @ 0x55b04ce66300] Opening '/data/transcodes/56330b9d4cc1398765263a4770ae6f3286.ts' for writing
[hls @ 0x55b04ce66300] Opening '/data/transcodes/56330b9d4cc1398765263a4770ae6f3287.ts' for writing
[hls @ 0x55b04ce66300] Opening '/data/transcodes/56330b9d4cc1398765263a4770ae6f3288.ts' for writing
frame=13474 fps=961 q=-1.0 size=N/A time=00:08:40.47 bitrate=N/A speed=37.1x    
[hls @ 0x55b04ce66300] Opening '/data/transcodes/56330b9d4cc1398765263a4770ae6f3289.ts' for writing
[hls @ 0x55b04ce66300] Opening '/data/transcodes/56330b9d4cc1398765263a4770ae6f3290.ts' for writing
[hls @ 0x55b04ce66300] Opening '/data/transcodes/56330b9d4cc1398765263a4770ae6f3291.ts' for writing
[hls @ 0x55b04ce66300] Opening '/data/transcodes/56330b9d4cc1398765263a4770ae6f3292.ts' for writing
frame=13951 fps=961 q=-1.0 size=N/A time=00:08:59.54 bitrate=N/A speed=37.2x    
[hls @ 0x55b04ce66300] Opening '/data/transcodes/56330b9d4cc1398765263a4770ae6f3293.ts' for writing
[hls @ 0x55b04ce66300] Opening '/data/transcodes/56330b9d4cc1398765263a4770ae6f3294.ts' for writing
[hls @ 0x55b04ce66300] Opening '/data/transcodes/56330b9d4cc1398765263a4770ae6f3295.ts' for writing
frame=14455 fps=962 q=-1.0 size=N/A time=00:09:19.77 bitrate=N/A speed=37.3x    
[hls @ 0x55b04ce66300] Opening '/data/transcodes/56330b9d4cc1398765263a4770ae6f3296.ts' for writing
[hls @ 0x55b04ce66300] Opening '/data/transcodes/56330b9d4cc1398765263a4770ae6f3297.ts' for writing
[hls @ 0x55b04ce66300] Opening '/data/transcodes/56330b9d4cc1398765263a4770ae6f3298.ts' for writing
frame=14951 fps=963 q=-1.0 size=N/A time=00:09:39.33 bitrate=N/A speed=37.3x    
[hls @ 0x55b04ce66300] Opening '/data/transcodes/56330b9d4cc1398765263a4770ae6f3299.ts' for writing
[hls @ 0x55b04ce66300] Opening '/data/transcodes/56330b9d4cc1398765263a4770ae6f32100.ts' for writing
[hls @ 0x55b04ce66300] Opening '/data/transcodes/56330b9d4cc1398765263a4770ae6f32101.ts' for writing
frame=15401 fps=961 q=-1.0 size=N/A time=00:09:57.33 bitrate=N/A speed=37.3x    
[hls @ 0x55b04ce66300] Opening '/data/transcodes/56330b9d4cc1398765263a4770ae6f32102.ts' for writing
[hls @ 0x55b04ce66300] Opening '/data/transcodes/56330b9d4cc1398765263a4770ae6f32103.ts' for writing
[hls @ 0x55b04ce66300] Opening '/data/transcodes/56330b9d4cc1398765263a4770ae6f32104.ts' for writing
frame=15886 fps=961 q=-1.0 size=N/A time=00:10:17.09 bitrate=N/A speed=37.3x    
[hls @ 0x55b04ce66300] Opening '/data/transcodes/56330b9d4cc1398765263a4770ae6f32105.ts' for writing
[hls @ 0x55b04ce66300] Opening '/data/transcodes/56330b9d4cc1398765263a4770ae6f32106.ts' for writing
[hls @ 0x55b04ce66300] Opening '/data/transcodes/56330b9d4cc1398765263a4770ae6f32107.ts' for writing
[hls @ 0x55b04ce66300] Opening '/data/transcodes/56330b9d4cc1398765263a4770ae6f32108.ts' for writing
frame=16357 fps=961 q=-1.0 size=N/A time=00:10:35.80 bitrate=N/A speed=37.3x    
[hls @ 0x55b04ce66300] Opening '/data/transcodes/56330b9d4cc1398765263a4770ae6f32109.ts' for writing
[hls @ 0x55b04ce66300] Opening '/data/transcodes/56330b9d4cc1398765263a4770ae6f32110.ts' for writing
[hls @ 0x55b04ce66300] Opening '/data/transcodes/56330b9d4cc1398765263a4770ae6f32111.ts' for writing
frame=16867 fps=962 q=-1.0 size=N/A time=00:10:56.13 bitrate=N/A speed=37.4x    
[hls @ 0x55b04ce66300] Opening '/data/transcodes/56330b9d4cc1398765263a4770ae6f32112.ts' for writing
[hls @ 0x55b04ce66300] Opening '/data/transcodes/56330b9d4cc1398765263a4770ae6f32113.ts' for writing
[hls @ 0x55b04ce66300] Opening '/data/transcodes/56330b9d4cc1398765263a4770ae6f32114.ts' for writing
frame=17381 fps=964 q=-1.0 size=N/A time=00:11:16.82 bitrate=N/A speed=37.5x    
[hls @ 0x55b04ce66300] Opening '/data/transcodes/56330b9d4cc1398765263a4770ae6f32115.ts' for writing
[hls @ 0x55b04ce66300] Opening '/data/transcodes/56330b9d4cc1398765263a4770ae6f32116.ts' for writing
[hls @ 0x55b04ce66300] Opening '/data/transcodes/56330b9d4cc1398765263a4770ae6f32117.ts' for writing
[hls @ 0x55b04ce66300] Opening '/data/transcodes/56330b9d4cc1398765263a4770ae6f32118.ts' for writing
frame=17863 fps=964 q=-1.0 size=N/A time=00:11:35.96 bitrate=N/A speed=37.6x    
[hls @ 0x55b04ce66300] Opening '/data/transcodes/56330b9d4cc1398765263a4770ae6f32119.ts' for writing
[hls @ 0x55b04ce66300] Opening '/data/transcodes/56330b9d4cc1398765263a4770ae6f32120.ts' for writing
[hls @ 0x55b04ce66300] Opening '/data/transcodes/56330b9d4cc1398765263a4770ae6f32121.ts' for writing
frame=18401 fps=967 q=-1.0 size=N/A time=00:11:57.50 bitrate=N/A speed=37.7x    
[hls @ 0x55b04ce66300] Opening '/data/transcodes/56330b9d4cc1398765263a4770ae6f32122.ts' for writing
[hls @ 0x55b04ce66300] Opening '/data/transcodes/56330b9d4cc1398765263a4770ae6f32123.ts' for writing
[hls @ 0x55b04ce66300] Opening '/data/transcodes/56330b9d4cc1398765263a4770ae6f32124.ts' for writing
[hls @ 0x55b04ce66300] Opening '/data/transcodes/56330b9d4cc1398765263a4770ae6f32125.ts' for writing
frame=18939 fps=970 q=-1.0 size=N/A time=00:12:19.07 bitrate=N/A speed=37.9x    
[hls @ 0x55b04ce66300] Opening '/data/transcodes/56330b9d4cc1398765263a4770ae6f32126.ts' for writing
[hls @ 0x55b04ce66300] Opening '/data/transcodes/56330b9d4cc1398765263a4770ae6f32127.ts' for writing
[hls @ 0x55b04ce66300] Opening '/data/transcodes/56330b9d4cc1398765263a4770ae6f32128.ts' for writing
[hls @ 0x55b04ce66300] Opening '/data/transcodes/56330b9d4cc1398765263a4770ae6f32129.ts' for writing
frame=19501 fps=974 q=-1.0 size=N/A time=00:12:41.34 bitrate=N/A speed=  38x    
[hls @ 0x55b04ce66300] Opening '/data/transcodes/56330b9d4cc1398765263a4770ae6f32130.ts' for writing
[hls @ 0x55b04ce66300] Opening '/data/transcodes/56330b9d4cc1398765263a4770ae6f32131.ts' for writing
[hls @ 0x55b04ce66300] Opening '/data/transcodes/56330b9d4cc1398765263a4770ae6f32132.ts' for writing
frame=20061 fps=977 q=-1.0 size=N/A time=00:13:03.81 bitrate=N/A speed=38.2x    
[hls @ 0x55b04ce66300] Opening '/data/transcodes/56330b9d4cc1398765263a4770ae6f32133.ts' for writing
[hls @ 0x55b04ce66300] Opening '/data/transcodes/56330b9d4cc1398765263a4770ae6f32134.ts' for writing
[hls @ 0x55b04ce66300] Opening '/data/transcodes/56330b9d4cc1398765263a4770ae6f32135.ts' for writing
[hls @ 0x55b04ce66300] Opening '/data/transcodes/56330b9d4cc1398765263a4770ae6f32136.ts' for writing
frame=20569 fps=978 q=-1.0 size=N/A time=00:13:24.25 bitrate=N/A speed=38.2x    
[hls @ 0x55b04ce66300] Opening '/data/transcodes/56330b9d4cc1398765263a4770ae6f32137.ts' for writing
[hls @ 0x55b04ce66300] Opening '/data/transcodes/56330b9d4cc1398765263a4770ae6f32138.ts' for writing
[hls @ 0x55b04ce66300] Opening '/data/transcodes/56330b9d4cc1398765263a4770ae6f32139.ts' for writing
frame=21051 fps=978 q=-1.0 size=N/A time=00:13:43.45 bitrate=N/A speed=38.2x    
[hls @ 0x55b04ce66300] Opening '/data/transcodes/56330b9d4cc1398765263a4770ae6f32140.ts' for writing
[hls @ 0x55b04ce66300] Opening '/data/transcodes/56330b9d4cc1398765263a4770ae6f32141.ts' for writing
frame=21433 fps=973 q=-1.0 size=N/A time=00:13:58.61 bitrate=N/A speed=38.1x    
[hls @ 0x55b04ce66300] Opening '/data/transcodes/56330b9d4cc1398765263a4770ae6f32142.ts' for writing
[hls @ 0x55b04ce66300] Opening '/data/transcodes/56330b9d4cc1398765263a4770ae6f32143.ts' for writing
[hls @ 0x55b04ce66300] Opening '/data/transcodes/56330b9d4cc1398765263a4770ae6f32144.ts' for writing
frame=21896 fps=972 q=-1.0 size=N/A time=00:14:17.24 bitrate=N/A speed=  38x    
[hls @ 0x55b04ce66300] Opening '/data/transcodes/56330b9d4cc1398765263a4770ae6f32145.ts' for writing
[hls @ 0x55b04ce66300] Opening '/data/transcodes/56330b9d4cc1398765263a4770ae6f32146.ts' for writing
[hls @ 0x55b04ce66300] Opening '/data/transcodes/56330b9d4cc1398765263a4770ae6f32147.ts' for writing
[hls @ 0x55b04ce66300] Opening '/data/transcodes/56330b9d4cc1398765263a4770ae6f32148.ts' for writing
frame=22418 fps=973 q=-1.0 size=N/A time=00:14:38.23 bitrate=N/A speed=38.1x    
[hls @ 0x55b04ce66300] Opening '/data/transcodes/56330b9d4cc1398765263a4770ae6f32149.ts' for writing
[hls @ 0x55b04ce66300] Opening '/data/transcodes/56330b9d4cc1398765263a4770ae6f32150.ts' for writing
[hls @ 0x55b04ce66300] Opening '/data/transcodes/56330b9d4cc1398765263a4770ae6f32151.ts' for writing
[hls @ 0x55b04ce66300] Opening '/data/transcodes/56330b9d4cc1398765263a4770ae6f32152.ts' for writing
frame=22964 fps=976 q=-1.0 size=N/A time=00:14:59.86 bitrate=N/A speed=38.2x    
[hls @ 0x55b04ce66300] Opening '/data/transcodes/56330b9d4cc1398765263a4770ae6f32153.ts' for writing
[hls @ 0x55b04ce66300] Opening '/data/transcodes/56330b9d4cc1398765263a4770ae6f32154.ts' for writing
[hls @ 0x55b04ce66300] Opening '/data/transcodes/56330b9d4cc1398765263a4770ae6f32155.ts' for writing
frame=23464 fps=976 q=-1.0 size=N/A time=00:15:19.87 bitrate=N/A speed=38.3x    
[hls @ 0x55b04ce66300] Opening '/data/transcodes/56330b9d4cc1398765263a4770ae6f32156.ts' for writing
[hls @ 0x55b04ce66300] Opening '/data/transcodes/56330b9d4cc1398765263a4770ae6f32157.ts' for writing
[hls @ 0x55b04ce66300] Opening '/data/transcodes/56330b9d4cc1398765263a4770ae6f32158.ts' for writing
[hls @ 0x55b04ce66300] Opening '/data/transcodes/56330b9d4cc1398765263a4770ae6f32159.ts' for writing
frame=24032 fps=980 q=-1.0 size=N/A time=00:15:42.81 bitrate=N/A speed=38.4x    
[hls @ 0x55b04ce66300] Opening '/data/transcodes/56330b9d4cc1398765263a4770ae6f32160.ts' for writing
[hls @ 0x55b04ce66300] Opening '/data/transcodes/56330b9d4cc1398765263a4770ae6f32161.ts' for writing
[hls @ 0x55b04ce66300] Opening '/data/transcodes/56330b9d4cc1398765263a4770ae6f32162.ts' for writing
[hls @ 0x55b04ce66300] Opening '/data/transcodes/56330b9d4cc1398765263a4770ae6f32163.ts' for writing
frame=24667 fps=985 q=-1.0 size=N/A time=00:16:08.21 bitrate=N/A speed=38.7x    
[hls @ 0x55b04ce66300] Opening '/data/transcodes/56330b9d4cc1398765263a4770ae6f32164.ts' for writing
[hls @ 0x55b04ce66300] Opening '/data/transcodes/56330b9d4cc1398765263a4770ae6f32165.ts' for writing
[hls @ 0x55b04ce66300] Opening '/data/transcodes/56330b9d4cc1398765263a4770ae6f32166.ts' for writing
[hls @ 0x55b04ce66300] Opening '/data/transcodes/56330b9d4cc1398765263a4770ae6f32167.ts' for writing
frame=25324 fps=992 q=-1.0 size=N/A time=00:16:34.45 bitrate=N/A speed=38.9x    
[hls @ 0x55b04ce66300] Opening '/data/transcodes/56330b9d4cc1398765263a4770ae6f32168.ts' for writing
[hls @ 0x55b04ce66300] Opening '/data/transcodes/56330b9d4cc1398765263a4770ae6f32169.ts' for writing
[hls @ 0x55b04ce66300] Opening '/data/transcodes/56330b9d4cc1398765263a4770ae6f32170.ts' for writing
[hls @ 0x55b04ce66300] Opening '/data/transcodes/56330b9d4cc1398765263a4770ae6f32171.ts' for writing
frame=25882 fps=994 q=-1.0 size=N/A time=00:16:56.60 bitrate=N/A speed=  39x    
[hls @ 0x55b04ce66300] Opening '/data/transcodes/56330b9d4cc1398765263a4770ae6f32172.ts' for writing
[hls @ 0x55b04ce66300] Opening '/data/transcodes/56330b9d4cc1398765263a4770ae6f32173.ts' for writing
[hls @ 0x55b04ce66300] Opening '/data/transcodes/56330b9d4cc1398765263a4770ae6f32174.ts' for writing
frame=26362 fps=993 q=-1.0 size=N/A time=00:17:15.90 bitrate=N/A speed=  39x    
[hls @ 0x55b04ce66300] Opening '/data/transcodes/56330b9d4cc1398765263a4770ae6f32175.ts' for writing
[hls @ 0x55b04ce66300] Opening '/data/transcodes/56330b9d4cc1398765263a4770ae6f32176.ts' for writing
[hls @ 0x55b04ce66300] Opening '/data/transcodes/56330b9d4cc1398765263a4770ae6f32177.ts' for writing
[hls @ 0x55b04ce66300] Opening '/data/transcodes/56330b9d4cc1398765263a4770ae6f32178.ts' for writing
frame=26868 fps=994 q=-1.0 size=N/A time=00:17:36.32 bitrate=N/A speed=39.1x    
[hls @ 0x55b04ce66300] Opening '/data/transcodes/56330b9d4cc1398765263a4770ae6f32179.ts' for writing
[hls @ 0x55b04ce66300] Opening '/data/transcodes/56330b9d4cc1398765263a4770ae6f32180.ts' for writing
[hls @ 0x55b04ce66300] Opening '/data/transcodes/56330b9d4cc1398765263a4770ae6f32181.ts' for writing
frame=27386 fps=995 q=-1.0 size=N/A time=00:17:56.82 bitrate=N/A speed=39.1x    
[hls @ 0x55b04ce66300] Opening '/data/transcodes/56330b9d4cc1398765263a4770ae6f32182.ts' for writing
[hls @ 0x55b04ce66300] Opening '/data/transcodes/56330b9d4cc1398765263a4770ae6f32183.ts' for writing
[hls @ 0x55b04ce66300] Opening '/data/transcodes/56330b9d4cc1398765263a4770ae6f32184.ts' for writing
[hls @ 0x55b04ce66300] Opening '/data/transcodes/56330b9d4cc1398765263a4770ae6f32185.ts' for writing
frame=27905 fps=995 q=-1.0 size=N/A time=00:18:17.75 bitrate=N/A speed=39.2x    
[hls @ 0x55b04ce66300] Opening '/data/transcodes/56330b9d4cc1398765263a4770ae6f32186.ts' for writing
[hls @ 0x55b04ce66300] Opening '/data/transcodes/56330b9d4cc1398765263a4770ae6f32187.ts' for writing
[hls @ 0x55b04ce66300] Opening '/data/transcodes/56330b9d4cc1398765263a4770ae6f32188.ts' for writing
frame=28433 fps=996 q=-1.0 size=N/A time=00:18:38.81 bitrate=N/A speed=39.2x    
[hls @ 0x55b04ce66300] Opening '/data/transcodes/56330b9d4cc1398765263a4770ae6f32189.ts' for writing
[hls @ 0x55b04ce66300] Opening '/data/transcodes/56330b9d4cc1398765263a4770ae6f32190.ts' for writing
[hls @ 0x55b04ce66300] Opening '/data/transcodes/56330b9d4cc1398765263a4770ae6f32191.ts' for writing
frame=28888 fps=995 q=-1.0 size=N/A time=00:18:56.98 bitrate=N/A speed=39.2x    
[hls @ 0x55b04ce66300] Opening '/data/transcodes/56330b9d4cc1398765263a4770ae6f32192.ts' for writing
[hls @ 0x55b04ce66300] Opening '/data/transcodes/56330b9d4cc1398765263a4770ae6f32193.ts' for writing
[hls @ 0x55b04ce66300] Opening '/data/transcodes/56330b9d4cc1398765263a4770ae6f32194.ts' for writing
[hls @ 0x55b04ce66300] Opening '/data/transcodes/56330b9d4cc1398765263a4770ae6f32195.ts' for writing
frame=29406 fps=996 q=-1.0 size=N/A time=00:19:17.70 bitrate=N/A speed=39.2x    
[hls @ 0x55b04ce66300] Opening '/data/transcodes/56330b9d4cc1398765263a4770ae6f32196.ts' for writing
[hls @ 0x55b04ce66300] Opening '/data/transcodes/56330b9d4cc1398765263a4770ae6f32197.ts' for writing
[hls @ 0x55b04ce66300] Opening '/data/transcodes/56330b9d4cc1398765263a4770ae6f32198.ts' for writing
frame=29920 fps=996 q=-1.0 size=N/A time=00:19:38.20 bitrate=N/A speed=39.2x    
[hls @ 0x55b04ce66300] Opening '/data/transcodes/56330b9d4cc1398765263a4770ae6f32199.ts' for writing
[hls @ 0x55b04ce66300] Opening '/data/transcodes/56330b9d4cc1398765263a4770ae6f32200.ts' for writing
[hls @ 0x55b04ce66300] Opening '/data/transcodes/56330b9d4cc1398765263a4770ae6f32201.ts' for writing
frame=30436 fps=997 q=-1.0 size=N/A time=00:19:58.81 bitrate=N/A speed=39.3x    
[hls @ 0x55b04ce66300] Opening '/data/transcodes/56330b9d4cc1398765263a4770ae6f32202.ts' for writing
[hls @ 0x55b04ce66300] Opening '/data/transcodes/56330b9d4cc1398765263a4770ae6f32203.ts' for writing
[hls @ 0x55b04ce66300] Opening '/data/transcodes/56330b9d4cc1398765263a4770ae6f32204.ts' for writing
[hls @ 0x55b04ce66300] Opening '/data/transcodes/56330b9d4cc1398765263a4770ae6f32205.ts' for writing
frame=30901 fps=995 q=-1.0 size=N/A time=00:20:17.34 bitrate=N/A speed=39.2x    
[hls @ 0x55b04ce66300] Opening '/data/transcodes/56330b9d4cc1398765263a4770ae6f32206.ts' for writing
[hls @ 0x55b04ce66300] Opening '/data/transcodes/56330b9d4cc1398765263a4770ae6f32207.ts' for writing
frame=31323 fps=993 q=-1.0 size=N/A time=00:20:34.39 bitrate=N/A speed=39.1x    
[hls @ 0x55b04ce66300] Opening '/data/transcodes/56330b9d4cc1398765263a4770ae6f32208.ts' for writing
[hls @ 0x55b04ce66300] Opening '/data/transcodes/56330b9d4cc1398765263a4770ae6f32209.ts' for writing
[hls @ 0x55b04ce66300] Opening '/data/transcodes/56330b9d4cc1398765263a4770ae6f32210.ts' for writing
frame=31733 fps=990 q=-1.0 size=N/A time=00:20:50.69 bitrate=N/A speed=  39x    
[hls @ 0x55b04ce66300] Opening '/data/transcodes/56330b9d4cc1398765263a4770ae6f32211.ts' for writing
[hls @ 0x55b04ce66300] Opening '/data/transcodes/56330b9d4cc1398765263a4770ae6f32212.ts' for writing
[hls @ 0x55b04ce66300] Opening '/data/transcodes/56330b9d4cc1398765263a4770ae6f32213.ts' for writing
frame=32207 fps=990 q=-1.0 size=N/A time=00:21:09.78 bitrate=N/A speed=  39x    
[hls @ 0x55b04ce66300] Opening '/data/transcodes/56330b9d4cc1398765263a4770ae6f32214.ts' for writing
[hls @ 0x55b04ce66300] Opening '/data/transcodes/56330b9d4cc1398765263a4770ae6f32215.ts' for writing
[hls @ 0x55b04ce66300] Opening '/data/transcodes/56330b9d4cc1398765263a4770ae6f32216.ts' for writing
[hls @ 0x55b04ce66300] Opening '/data/transcodes/56330b9d4cc1398765263a4770ae6f32217.ts' for writing
frame=32732 fps=990 q=-1.0 size=N/A time=00:21:30.56 bitrate=N/A speed=39.1x    
[hls @ 0x55b04ce66300] Opening '/data/transcodes/56330b9d4cc1398765263a4770ae6f32218.ts' for writing
[hls @ 0x55b04ce66300] Opening '/data/transcodes/56330b9d4cc1398765263a4770ae6f32219.ts' for writing
[hls @ 0x55b04ce66300] Opening '/data/transcodes/56330b9d4cc1398765263a4770ae6f32220.ts' for writing
frame=33208 fps=990 q=-1.0 size=N/A time=00:21:49.78 bitrate=N/A speed=  39x    
[hls @ 0x55b04ce66300] Opening '/data/transcodes/56330b9d4cc1398765263a4770ae6f32221.ts' for writing
[hls @ 0x55b04ce66300] Opening '/data/transcodes/56330b9d4cc1398765263a4770ae6f32222.ts' for writing
[hls @ 0x55b04ce66300] Opening '/data/transcodes/56330b9d4cc1398765263a4770ae6f32223.ts' for writing
frame=33743 fps=991 q=-1.0 size=N/A time=00:22:11.20 bitrate=N/A speed=39.1x    
[hls @ 0x55b04ce66300] Opening '/data/transcodes/56330b9d4cc1398765263a4770ae6f32224.ts' for writing
[hls @ 0x55b04ce66300] Opening '/data/transcodes/56330b9d4cc1398765263a4770ae6f32225.ts' for writing
[hls @ 0x55b04ce66300] Opening '/data/transcodes/56330b9d4cc1398765263a4770ae6f32226.ts' for writing
[hls @ 0x55b04ce66300] Opening '/data/transcodes/56330b9d4cc1398765263a4770ae6f32227.ts' for writing
frame=34282 fps=992 q=-1.0 size=N/A time=00:22:32.66 bitrate=N/A speed=39.2x    
[hls @ 0x55b04ce66300] Opening '/data/transcodes/56330b9d4cc1398765263a4770ae6f32228.ts' for writing
[hls @ 0x55b04ce66300] Opening '/data/transcodes/56330b9d4cc1398765263a4770ae6f32229.ts' for writing
[hls @ 0x55b04ce66300] Opening '/data/transcodes/56330b9d4cc1398765263a4770ae6f32230.ts' for writing
[hls @ 0x55b04ce66300] Opening '/data/transcodes/56330b9d4cc1398765263a4770ae6f32231.ts' for writing
frame=34801 fps=993 q=-1.0 size=N/A time=00:22:53.31 bitrate=N/A speed=39.2x    
[hls @ 0x55b04ce66300] Opening '/data/transcodes/56330b9d4cc1398765263a4770ae6f32232.ts' for writing
[hls @ 0x55b04ce66300] Opening '/data/transcodes/56330b9d4cc1398765263a4770ae6f32233.ts' for writing
[hls @ 0x55b04ce66300] Opening '/data/transcodes/56330b9d4cc1398765263a4770ae6f32234.ts' for writing
frame=35286 fps=993 q=-1.0 size=N/A time=00:23:12.96 bitrate=N/A speed=39.2x    
[hls @ 0x55b04ce66300] Opening '/data/transcodes/56330b9d4cc1398765263a4770ae6f32235.ts' for writing
[hls @ 0x55b04ce66300] Opening '/data/transcodes/56330b9d4cc1398765263a4770ae6f32236.ts' for writing
[hls @ 0x55b04ce66300] Opening '/data/transcodes/56330b9d4cc1398765263a4770ae6f32237.ts' for writing
[hls @ 0x55b04ce66300] Opening '/data/transcodes/56330b9d4cc1398765263a4770ae6f32238.ts' for writing
frame=35851 fps=994 q=-1.0 size=N/A time=00:23:35.30 bitrate=N/A speed=39.3x    
[hls @ 0x55b04ce66300] Opening '/data/transcodes/56330b9d4cc1398765263a4770ae6f32239.ts' for writing
[hls @ 0x55b04ce66300] Opening '/data/transcodes/56330b9d4cc1398765263a4770ae6f32240.ts' for writing
[hls @ 0x55b04ce66300] Opening '/data/transcodes/56330b9d4cc1398765263a4770ae6f32241.ts' for writing
frame=36337 fps=994 q=-1.0 size=N/A time=00:23:54.84 bitrate=N/A speed=39.3x    
[hls @ 0x55b04ce66300] Opening '/data/transcodes/56330b9d4cc1398765263a4770ae6f32242.ts' for writing
[hls @ 0x55b04ce66300] Opening '/data/transcodes/56330b9d4cc1398765263a4770ae6f32243.ts' for writing
[hls @ 0x55b04ce66300] Opening '/data/transcodes/56330b9d4cc1398765263a4770ae6f32244.ts' for writing
frame=36801 fps=993 q=-1.0 size=N/A time=00:24:13.46 bitrate=N/A speed=39.2x    
[hls @ 0x55b04ce66300] Opening '/data/transcodes/56330b9d4cc1398765263a4770ae6f32245.ts' for writing
[hls @ 0x55b04ce66300] Opening '/data/transcodes/56330b9d4cc1398765263a4770ae6f32246.ts' for writing
[hls @ 0x55b04ce66300] Opening '/data/transcodes/56330b9d4cc1398765263a4770ae6f32247.ts' for writing
frame=37301 fps=993 q=-1.0 size=N/A time=00:24:33.43 bitrate=N/A speed=39.2x    
[hls @ 0x55b04ce66300] Opening '/data/transcodes/56330b9d4cc1398765263a4770ae6f32248.ts' for writing
[hls @ 0x55b04ce66300] Opening '/data/transcodes/56330b9d4cc1398765263a4770ae6f32249.ts' for writing
[hls @ 0x55b04ce66300] Opening '/data/transcodes/56330b9d4cc1398765263a4770ae6f32250.ts' for writing
[hls @ 0x55b04ce66300] Opening '/data/transcodes/56330b9d4cc1398765263a4770ae6f32251.ts' for writing
frame=37801 fps=993 q=-1.0 size=N/A time=00:24:53.33 bitrate=N/A speed=39.2x    
[hls @ 0x55b04ce66300] Opening '/data/transcodes/56330b9d4cc1398765263a4770ae6f32252.ts' for writing
[hls @ 0x55b04ce66300] Opening '/data/transcodes/56330b9d4cc1398765263a4770ae6f32253.ts' for writing
[hls @ 0x55b04ce66300] Opening '/data/transcodes/56330b9d4cc1398765263a4770ae6f32254.ts' for writing
frame=38330 fps=994 q=-1.0 size=N/A time=00:25:14.77 bitrate=N/A speed=39.3x    
[hls @ 0x55b04ce66300] Opening '/data/transcodes/56330b9d4cc1398765263a4770ae6f32255.ts' for writing
[hls @ 0x55b04ce66300] Opening '/data/transcodes/56330b9d4cc1398765263a4770ae6f32256.ts' for writing
[hls @ 0x55b04ce66300] Opening '/data/transcodes/56330b9d4cc1398765263a4770ae6f32257.ts' for writing
[hls @ 0x55b04ce66300] Opening '/data/transcodes/56330b9d4cc1398765263a4770ae6f32258.ts' for writing
frame=38852 fps=995 q=-1.0 size=N/A time=00:25:35.55 bitrate=N/A speed=39.3x    
[hls @ 0x55b04ce66300] Opening '/data/transcodes/56330b9d4cc1398765263a4770ae6f32259.ts' for writing
[hls @ 0x55b04ce66300] Opening '/data/transcodes/56330b9d4cc1398765263a4770ae6f32260.ts' for writing
[hls @ 0x55b04ce66300] Opening '/data/transcodes/56330b9d4cc1398765263a4770ae6f32261.ts' for writing
frame=39420 fps=997 q=-1.0 size=N/A time=00:25:58.27 bitrate=N/A speed=39.4x    
[hls @ 0x55b04ce66300] Opening '/data/transcodes/56330b9d4cc1398765263a4770ae6f32262.ts' for writing
[hls @ 0x55b04ce66300] Opening '/data/transcodes/56330b9d4cc1398765263a4770ae6f32263.ts' for writing
[hls @ 0x55b04ce66300] Opening '/data/transcodes/56330b9d4cc1398765263a4770ae6f32264.ts' for writing
[hls @ 0x55b04ce66300] Opening '/data/transcodes/56330b9d4cc1398765263a4770ae6f32265.ts' for writing
frame=39975 fps=998 q=-1.0 size=N/A time=00:26:20.50 bitrate=N/A speed=39.5x    
[hls @ 0x55b04ce66300] Opening '/data/transcodes/56330b9d4cc1398765263a4770ae6f32266.ts' for writing
[hls @ 0x55b04ce66300] Opening '/data/transcodes/56330b9d4cc1398765263a4770ae6f32267.ts' for writing
[hls @ 0x55b04ce66300] Opening '/data/transcodes/56330b9d4cc1398765263a4770ae6f32268.ts' for writing
[hls @ 0x55b04ce66300] Opening '/data/transcodes/56330b9d4cc1398765263a4770ae6f32269.ts' for writing
frame=40638 fps=1002 q=-1.0 size=N/A time=00:26:46.87 bitrate=N/A speed=39.6x    
[hls @ 0x55b04ce66300] Opening '/data/transcodes/56330b9d4cc1398765263a4770ae6f32270.ts' for writing
[hls @ 0x55b04ce66300] Opening '/data/transcodes/56330b9d4cc1398765263a4770ae6f32271.ts' for writing
[hls @ 0x55b04ce66300] Opening '/data/transcodes/56330b9d4cc1398765263a4770ae6f32272.ts' for writing
[hls @ 0x55b04ce66300] Opening '/data/transcodes/56330b9d4cc1398765263a4770ae6f32273.ts' for writing
frame=41132 fps=1002 q=-1.0 size=N/A time=00:27:06.71 bitrate=N/A speed=39.6x    
[hls @ 0x55b04ce66300] Opening '/data/transcodes/56330b9d4cc1398765263a4770ae6f32274.ts' for writing
[hls @ 0x55b04ce66300] Opening '/data/transcodes/56330b9d4cc1398765263a4770ae6f32275.ts' for writing
[hls @ 0x55b04ce66300] Opening '/data/transcodes/56330b9d4cc1398765263a4770ae6f32276.ts' for writing
frame=41651 fps=1002 q=-1.0 size=N/A time=00:27:27.38 bitrate=N/A speed=39.6x    
[hls @ 0x55b04ce66300] Opening '/data/transcodes/56330b9d4cc1398765263a4770ae6f32277.ts' for writing
[hls @ 0x55b04ce66300] Opening '/data/transcodes/56330b9d4cc1398765263a4770ae6f32278.ts' for writing
[hls @ 0x55b04ce66300] Opening '/data/transcodes/56330b9d4cc1398765263a4770ae6f32279.ts' for writing
frame=42121 fps=1001 q=-1.0 size=N/A time=00:27:46.30 bitrate=N/A speed=39.6x    
[hls @ 0x55b04ce66300] Opening '/data/transcodes/56330b9d4cc1398765263a4770ae6f32280.ts' for writing
[hls @ 0x55b04ce66300] Opening '/data/transcodes/56330b9d4cc1398765263a4770ae6f32281.ts' for writing
[hls @ 0x55b04ce66300] Opening '/data/transcodes/56330b9d4cc1398765263a4770ae6f32282.ts' for writing
[hls @ 0x55b04ce66300] Opening '/data/transcodes/56330b9d4cc1398765263a4770ae6f32283.ts' for writing
frame=42657 fps=1002 q=-1.0 size=N/A time=00:28:07.62 bitrate=N/A speed=39.7x    
[hls @ 0x55b04ce66300] Opening '/data/transcodes/56330b9d4cc1398765263a4770ae6f32284.ts' for writing
[hls @ 0x55b04ce66300] Opening '/data/transcodes/56330b9d4cc1398765263a4770ae6f32285.ts' for writing
[hls @ 0x55b04ce66300] Opening '/data/transcodes/56330b9d4cc1398765263a4770ae6f32286.ts' for writing
[hls @ 0x55b04ce66300] Opening '/data/transcodes/56330b9d4cc1398765263a4770ae6f32287.ts' for writing
frame=43226 fps=1004 q=-1.0 size=N/A time=00:28:30.53 bitrate=N/A speed=39.7x    
[hls @ 0x55b04ce66300] Opening '/data/transcodes/56330b9d4cc1398765263a4770ae6f32288.ts' for writing
[hls @ 0x55b04ce66300] Opening '/data/transcodes/56330b9d4cc1398765263a4770ae6f32289.ts' for writing
[hls @ 0x55b04ce66300] Opening '/data/transcodes/56330b9d4cc1398765263a4770ae6f32290.ts' for writing
frame=43720 fps=1004 q=-1.0 size=N/A time=00:28:50.30 bitrate=N/A speed=39.7x    
[hls @ 0x55b04ce66300] Opening '/data/transcodes/56330b9d4cc1398765263a4770ae6f32291.ts' for writing
[hls @ 0x55b04ce66300] Opening '/data/transcodes/56330b9d4cc1398765263a4770ae6f32292.ts' for writing
[hls @ 0x55b04ce66300] Opening '/data/transcodes/56330b9d4cc1398765263a4770ae6f32293.ts' for writing
frame=44217 fps=1004 q=-1.0 size=N/A time=00:29:10.10 bitrate=N/A speed=39.7x    
[hls @ 0x55b04ce66300] Opening '/data/transcodes/56330b9d4cc1398765263a4770ae6f32294.ts' for writing
[hls @ 0x55b04ce66300] Opening '/data/transcodes/56330b9d4cc1398765263a4770ae6f32295.ts' for writing
[hls @ 0x55b04ce66300] Opening '/data/transcodes/56330b9d4cc1398765263a4770ae6f32296.ts' for writing
[hls @ 0x55b04ce66300] Opening '/data/transcodes/56330b9d4cc1398765263a4770ae6f32297.ts' for writing
frame=44730 fps=1004 q=-1.0 size=N/A time=00:29:30.77 bitrate=N/A speed=39.7x    
[hls @ 0x55b04ce66300] Opening '/data/transcodes/56330b9d4cc1398765263a4770ae6f32298.ts' for writing
[hls @ 0x55b04ce66300] Opening '/data/transcodes/56330b9d4cc1398765263a4770ae6f32299.ts' for writing
[hls @ 0x55b04ce66300] Opening '/data/transcodes/56330b9d4cc1398765263a4770ae6f32300.ts' for writing
frame=45255 fps=1004 q=-1.0 size=N/A time=00:29:51.81 bitrate=N/A speed=39.8x    
[hls @ 0x55b04ce66300] Opening '/data/transcodes/56330b9d4cc1398765263a4770ae6f32301.ts' for writing
[hls @ 0x55b04ce66300] Opening '/data/transcodes/56330b9d4cc1398765263a4770ae6f32302.ts' for writing
[hls @ 0x55b04ce66300] Opening '/data/transcodes/56330b9d4cc1398765263a4770ae6f32303.ts' for writing
[hls @ 0x55b04ce66300] Opening '/data/transcodes/56330b9d4cc1398765263a4770ae6f32304.ts' for writing
frame=45786 fps=1005 q=-1.0 size=N/A time=00:30:12.95 bitrate=N/A speed=39.8x    
[hls @ 0x55b04ce66300] Opening '/data/transcodes/56330b9d4cc1398765263a4770ae6f32305.ts' for writing
[hls @ 0x55b04ce66300] Opening '/data/transcodes/56330b9d4cc1398765263a4770ae6f32306.ts' for writing
[hls @ 0x55b04ce66300] Opening '/data/transcodes/56330b9d4cc1398765263a4770ae6f32307.ts' for writing
[hls @ 0x55b04ce66300] Opening '/data/transcodes/56330b9d4cc1398765263a4770ae6f32308.ts' for writing
frame=46354 fps=1006 q=-1.0 size=N/A time=00:30:35.80 bitrate=N/A speed=39.9x    
[hls @ 0x55b04ce66300] Opening '/data/transcodes/56330b9d4cc1398765263a4770ae6f32309.ts' for writing
[hls @ 0x55b04ce66300] Opening '/data/transcodes/56330b9d4cc1398765263a4770ae6f32310.ts' for writing
[hls @ 0x55b04ce66300] Opening '/data/transcodes/56330b9d4cc1398765263a4770ae6f32311.ts' for writing
[hls @ 0x55b04ce66300] Opening '/data/transcodes/56330b9d4cc1398765263a4770ae6f32312.ts' for writing
[hls @ 0x55b04ce66300] Opening '/data/transcodes/56330b9d4cc1398765263a4770ae6f32313.ts' for writing
frame=47105 fps=1012 q=-1.0 size=N/A time=00:31:05.66 bitrate=N/A speed=40.1x    
[hls @ 0x55b04ce66300] Opening '/data/transcodes/56330b9d4cc1398765263a4770ae6f32314.ts' for writing
[hls @ 0x55b04ce66300] Opening '/data/transcodes/56330b9d4cc1398765263a4770ae6f32315.ts' for writing
[hls @ 0x55b04ce66300] Opening '/data/transcodes/56330b9d4cc1398765263a4770ae6f32316.ts' for writing
frame=47605 fps=1012 q=-1.0 size=N/A time=00:31:25.59 bitrate=N/A speed=40.1x    
[hls @ 0x55b04ce66300] Opening '/data/transcodes/56330b9d4cc1398765263a4770ae6f32317.ts' for writing
[hls @ 0x55b04ce66300] Opening '/data/transcodes/56330b9d4cc1398765263a4770ae6f32318.ts' for writing
[hls @ 0x55b04ce66300] Opening '/data/transcodes/56330b9d4cc1398765263a4770ae6f32319.ts' for writing
frame=48113 fps=1012 q=-1.0 size=N/A time=00:31:45.94 bitrate=N/A speed=40.1x    
[hls @ 0x55b04ce66300] Opening '/data/transcodes/56330b9d4cc1398765263a4770ae6f32320.ts' for writing
[hls @ 0x55b04ce66300] Opening '/data/transcodes/56330b9d4cc1398765263a4770ae6f32321.ts' for writing
[hls @ 0x55b04ce66300] Opening '/data/transcodes/56330b9d4cc1398765263a4770ae6f32322.ts' for writing
[hls @ 0x55b04ce66300] Opening '/data/transcodes/56330b9d4cc1398765263a4770ae6f32323.ts' for writing
frame=48637 fps=1012 q=-1.0 size=N/A time=00:32:07.00 bitrate=N/A speed=40.1x    
[hls @ 0x55b04ce66300] Opening '/data/transcodes/56330b9d4cc1398765263a4770ae6f32324.ts' for writing
[hls @ 0x55b04ce66300] Opening '/data/transcodes/56330b9d4cc1398765263a4770ae6f32325.ts' for writing
[hls @ 0x55b04ce66300] Opening '/data/transcodes/56330b9d4cc1398765263a4770ae6f32326.ts' for writing
frame=49162 fps=1012 q=-1.0 size=N/A time=00:32:27.97 bitrate=N/A speed=40.1x    
[hls @ 0x55b04ce66300] Opening '/data/transcodes/56330b9d4cc1398765263a4770ae6f32327.ts' for writing
[hls @ 0x55b04ce66300] Opening '/data/transcodes/56330b9d4cc1398765263a4770ae6f32328.ts' for writing
[hls @ 0x55b04ce66300] Opening '/data/transcodes/56330b9d4cc1398765263a4770ae6f32329.ts' for writing
[hls @ 0x55b04ce66300] Opening '/data/transcodes/56330b9d4cc1398765263a4770ae6f32330.ts' for writing
frame=49682 fps=1013 q=-1.0 size=N/A time=00:32:48.64 bitrate=N/A speed=40.1x    
[hls @ 0x55b04ce66300] Opening '/data/transcodes/56330b9d4cc1398765263a4770ae6f32331.ts' for writing
[hls @ 0x55b04ce66300] Opening '/data/transcodes/56330b9d4cc1398765263a4770ae6f32332.ts' for writing
[hls @ 0x55b04ce66300] Opening '/data/transcodes/56330b9d4cc1398765263a4770ae6f32333.ts' for writing
frame=50217 fps=1013 q=-1.0 size=N/A time=00:33:10.14 bitrate=N/A speed=40.2x    
[hls @ 0x55b04ce66300] Opening '/data/transcodes/56330b9d4cc1398765263a4770ae6f32334.ts' for writing
[hls @ 0x55b04ce66300] Opening '/data/transcodes/56330b9d4cc1398765263a4770ae6f32335.ts' for writing
[hls @ 0x55b04ce66300] Opening '/data/transcodes/56330b9d4cc1398765263a4770ae6f32336.ts' for writing
frame=50670 fps=1012 q=-1.0 size=N/A time=00:33:28.21 bitrate=N/A speed=40.1x    
[hls @ 0x55b04ce66300] Opening '/data/transcodes/56330b9d4cc1398765263a4770ae6f32337.ts' for writing
[hls @ 0x55b04ce66300] Opening '/data/transcodes/56330b9d4cc1398765263a4770ae6f32338.ts' for writing
[hls @ 0x55b04ce66300] Opening '/data/transcodes/56330b9d4cc1398765263a4770ae6f32339.ts' for writing
frame=51105 fps=1011 q=-1.0 size=N/A time=00:33:45.62 bitrate=N/A speed=40.1x    
[hls @ 0x55b04ce66300] Opening '/data/transcodes/56330b9d4cc1398765263a4770ae6f32340.ts' for writing
[hls @ 0x55b04ce66300] Opening '/data/transcodes/56330b9d4cc1398765263a4770ae6f32341.ts' for writing
[hls @ 0x55b04ce66300] Opening '/data/transcodes/56330b9d4cc1398765263a4770ae6f32342.ts' for writing
[hls @ 0x55b04ce66300] Opening '/data/transcodes/56330b9d4cc1398765263a4770ae6f32343.ts' for writing
frame=51601 fps=1010 q=-1.0 size=N/A time=00:34:05.33 bitrate=N/A speed=  40x    
[hls @ 0x55b04ce66300] Opening '/data/transcodes/56330b9d4cc1398765263a4770ae6f32344.ts' for writing
[hls @ 0x55b04ce66300] Opening '/data/transcodes/56330b9d4cc1398765263a4770ae6f32345.ts' for writing
[hls @ 0x55b04ce66300] Opening '/data/transcodes/56330b9d4cc1398765263a4770ae6f32346.ts' for writing
frame=52063 fps=1009 q=-1.0 size=N/A time=00:34:24.00 bitrate=N/A speed=  40x    
[hls @ 0x55b04ce66300] Opening '/data/transcodes/56330b9d4cc1398765263a4770ae6f32347.ts' for writing
[hls @ 0x55b04ce66300] Opening '/data/transcodes/56330b9d4cc1398765263a4770ae6f32348.ts' for writing
[hls @ 0x55b04ce66300] Opening '/data/transcodes/56330b9d4cc1398765263a4770ae6f32349.ts' for writing
frame=52526 fps=1009 q=-1.0 size=N/A time=00:34:42.52 bitrate=N/A speed=  40x    
[hls @ 0x55b04ce66300] Opening '/data/transcodes/56330b9d4cc1398765263a4770ae6f32350.ts' for writing
[hls @ 0x55b04ce66300] Opening '/data/transcodes/56330b9d4cc1398765263a4770ae6f32351.ts' for writing
[hls @ 0x55b04ce66300] Opening '/data/transcodes/56330b9d4cc1398765263a4770ae6f32352.ts' for writing
frame=53082 fps=1010 q=-1.0 size=N/A time=00:35:04.73 bitrate=N/A speed=  40x    
[hls @ 0x55b04ce66300] Opening '/data/transcodes/56330b9d4cc1398765263a4770ae6f32353.ts' for writing
[hls @ 0x55b04ce66300] Opening '/data/transcodes/56330b9d4cc1398765263a4770ae6f32354.ts' for writing
[hls @ 0x55b04ce66300] Opening '/data/transcodes/56330b9d4cc1398765263a4770ae6f32355.ts' for writing
[hls @ 0x55b04ce66300] Opening '/data/transcodes/56330b9d4cc1398765263a4770ae6f32356.ts' for writing
frame=53670 fps=1011 q=-1.0 size=N/A time=00:35:28.06 bitrate=N/A speed=40.1x    
[hls @ 0x55b04ce66300] Opening '/data/transcodes/56330b9d4cc1398765263a4770ae6f32357.ts' for writing
[hls @ 0x55b04ce66300] Opening '/data/transcodes/56330b9d4cc1398765263a4770ae6f32358.ts' for writing
[hls @ 0x55b04ce66300] Opening '/data/transcodes/56330b9d4cc1398765263a4770ae6f32359.ts' for writing
[hls @ 0x55b04ce66300] Opening '/data/transcodes/56330b9d4cc1398765263a4770ae6f32360.ts' for writing
frame=54155 fps=1011 q=-1.0 size=N/A time=00:35:47.71 bitrate=N/A speed=40.1x    
[hls @ 0x55b04ce66300] Opening '/data/transcodes/56330b9d4cc1398765263a4770ae6f32361.ts' for writing
[hls @ 0x55b04ce66300] Opening '/data/transcodes/56330b9d4cc1398765263a4770ae6f32362.ts' for writing
[hls @ 0x55b04ce66300] Opening '/data/transcodes/56330b9d4cc1398765263a4770ae6f32363.ts' for writing
frame=54668 fps=1011 q=-1.0 size=N/A time=00:36:08.28 bitrate=N/A speed=40.1x    
[hls @ 0x55b04ce66300] Opening '/data/transcodes/56330b9d4cc1398765263a4770ae6f32364.ts' for writing
[hls @ 0x55b04ce66300] Opening '/data/transcodes/56330b9d4cc1398765263a4770ae6f32365.ts' for writing
[hls @ 0x55b04ce66300] Opening '/data/transcodes/56330b9d4cc1398765263a4770ae6f32366.ts' for writing
frame=55117 fps=1010 q=-1.0 size=N/A time=00:36:26.18 bitrate=N/A speed=40.1x    
[hls @ 0x55b04ce66300] Opening '/data/transcodes/56330b9d4cc1398765263a4770ae6f32367.ts' for writing
[hls @ 0x55b04ce66300] Opening '/data/transcodes/56330b9d4cc1398765263a4770ae6f32368.ts' for writing
frame=55498 fps=1008 q=-1.0 size=N/A time=00:36:41.28 bitrate=N/A speed=  40x    
[hls @ 0x55b04ce66300] Opening '/data/transcodes/56330b9d4cc1398765263a4770ae6f32369.ts' for writing
[hls @ 0x55b04ce66300] Opening '/data/transcodes/56330b9d4cc1398765263a4770ae6f32370.ts' for writing
[hls @ 0x55b04ce66300] Opening '/data/transcodes/56330b9d4cc1398765263a4770ae6f32371.ts' for writing
frame=55945 fps=1007 q=-1.0 size=N/A time=00:36:59.29 bitrate=N/A speed=39.9x    
[hls @ 0x55b04ce66300] Opening '/data/transcodes/56330b9d4cc1398765263a4770ae6f32372.ts' for writing
[hls @ 0x55b04ce66300] Opening '/data/transcodes/56330b9d4cc1398765263a4770ae6f32373.ts' for writing
[hls @ 0x55b04ce66300] Opening '/data/transcodes/56330b9d4cc1398765263a4770ae6f32374.ts' for writing
[hls @ 0x55b04ce66300] Opening '/data/transcodes/56330b9d4cc1398765263a4770ae6f32375.ts' for writing
frame=56455 fps=1007 q=-1.0 size=N/A time=00:37:19.81 bitrate=N/A speed=39.9x    
[hls @ 0x55b04ce66300] Opening '/data/transcodes/56330b9d4cc1398765263a4770ae6f32376.ts' for writing
[hls @ 0x55b04ce66300] Opening '/data/transcodes/56330b9d4cc1398765263a4770ae6f32377.ts' for writing
[hls @ 0x55b04ce66300] Opening '/data/transcodes/56330b9d4cc1398765263a4770ae6f32378.ts' for writing
[hls @ 0x55b04ce66300] Opening '/data/transcodes/56330b9d4cc1398765263a4770ae6f32379.ts' for writing
frame=57006 fps=1008 q=-1.0 size=N/A time=00:37:41.78 bitrate=N/A speed=  40x    
[hls @ 0x55b04ce66300] Opening '/data/transcodes/56330b9d4cc1398765263a4770ae6f32380.ts' for writing
[hls @ 0x55b04ce66300] Opening '/data/transcodes/56330b9d4cc1398765263a4770ae6f32381.ts' for writing
[hls @ 0x55b04ce66300] Opening '/data/transcodes/56330b9d4cc1398765263a4770ae6f32382.ts' for writing
frame=57467 fps=1007 q=-1.0 size=N/A time=00:38:00.21 bitrate=N/A speed=39.9x    
[hls @ 0x55b04ce66300] Opening '/data/transcodes/56330b9d4cc1398765263a4770ae6f32383.ts' for writing
[hls @ 0x55b04ce66300] Opening '/data/transcodes/56330b9d4cc1398765263a4770ae6f32384.ts' for writing
[hls @ 0x55b04ce66300] Opening '/data/transcodes/56330b9d4cc1398765263a4770ae6f32385.ts' for writing
frame=57970 fps=1007 q=-1.0 size=N/A time=00:38:20.12 bitrate=N/A speed=39.9x    
[hls @ 0x55b04ce66300] Opening '/data/transcodes/56330b9d4cc1398765263a4770ae6f32386.ts' for writing
[hls @ 0x55b04ce66300] Opening '/data/transcodes/56330b9d4cc1398765263a4770ae6f32387.ts' for writing
[hls @ 0x55b04ce66300] Opening '/data/transcodes/56330b9d4cc1398765263a4770ae6f32388.ts' for writing
frame=58496 fps=1007 q=-1.0 size=N/A time=00:38:41.24 bitrate=N/A speed=  40x    
[hls @ 0x55b04ce66300] Opening '/data/transcodes/56330b9d4cc1398765263a4770ae6f32389.ts' for writing
[hls @ 0x55b04ce66300] Opening '/data/transcodes/56330b9d4cc1398765263a4770ae6f32390.ts' for writing
[hls @ 0x55b04ce66300] Opening '/data/transcodes/56330b9d4cc1398765263a4770ae6f32391.ts' for writing
[hls @ 0x55b04ce66300] Opening '/data/transcodes/56330b9d4cc1398765263a4770ae6f32392.ts' for writing
frame=58981 fps=1007 q=-1.0 size=N/A time=00:39:00.80 bitrate=N/A speed=  40x    
[hls @ 0x55b04ce66300] Opening '/data/transcodes/56330b9d4cc1398765263a4770ae6f32393.ts' for writing
[hls @ 0x55b04ce66300] Opening '/data/transcodes/56330b9d4cc1398765263a4770ae6f32394.ts' for writing
[hls @ 0x55b04ce66300] Opening '/data/transcodes/56330b9d4cc1398765263a4770ae6f32395.ts' for writing
frame=59505 fps=1007 q=-1.0 size=N/A time=00:39:21.79 bitrate=N/A speed=  40x    
[hls @ 0x55b04ce66300] Opening '/data/transcodes/56330b9d4cc1398765263a4770ae6f32396.ts' for writing
[hls @ 0x55b04ce66300] Opening '/data/transcodes/56330b9d4cc1398765263a4770ae6f32397.ts' for writing
[hls @ 0x55b04ce66300] Opening '/data/transcodes/56330b9d4cc1398765263a4770ae6f32398.ts' for writing
[hls @ 0x55b04ce66300] Opening '/data/transcodes/56330b9d4cc1398765263a4770ae6f32399.ts' for writing
frame=60001 fps=1007 q=-1.0 size=N/A time=00:39:41.33 bitrate=N/A speed=  40x    
[hls @ 0x55b04ce66300] Opening '/data/transcodes/56330b9d4cc1398765263a4770ae6f32400.ts' for writing
[hls @ 0x55b04ce66300] Opening '/data/transcodes/56330b9d4cc1398765263a4770ae6f32401.ts' for writing
[hls @ 0x55b04ce66300] Opening '/data/transcodes/56330b9d4cc1398765263a4770ae6f32402.ts' for writing
frame=60469 fps=1006 q=-1.0 size=N/A time=00:40:00.09 bitrate=N/A speed=39.9x    
[hls @ 0x55b04ce66300] Opening '/data/transcodes/56330b9d4cc1398765263a4770ae6f32403.ts' for writing
[hls @ 0x55b04ce66300] Opening '/data/transcodes/56330b9d4cc1398765263a4770ae6f32404.ts' for writing
[hls @ 0x55b04ce66300] Opening '/data/transcodes/56330b9d4cc1398765263a4770ae6f32405.ts' for writing
frame=60942 fps=1006 q=-1.0 size=N/A time=00:40:19.16 bitrate=N/A speed=39.9x    
[hls @ 0x55b04ce66300] Opening '/data/transcodes/56330b9d4cc1398765263a4770ae6f32406.ts' for writing
[hls @ 0x55b04ce66300] Opening '/data/transcodes/56330b9d4cc1398765263a4770ae6f32407.ts' for writing
[hls @ 0x55b04ce66300] Opening '/data/transcodes/56330b9d4cc1398765263a4770ae6f32408.ts' for writing
frame=61420 fps=1005 q=-1.0 size=N/A time=00:40:38.29 bitrate=N/A speed=39.9x    
[hls @ 0x55b04ce66300] Opening '/data/transcodes/56330b9d4cc1398765263a4770ae6f32409.ts' for writing
[hls @ 0x55b04ce66300] Opening '/data/transcodes/56330b9d4cc1398765263a4770ae6f32410.ts' for writing
[hls @ 0x55b04ce66300] Opening '/data/transcodes/56330b9d4cc1398765263a4770ae6f32411.ts' for writing
frame=61832 fps=1004 q=-1.0 size=N/A time=00:40:54.66 bitrate=N/A speed=39.9x    
[hls @ 0x55b04ce66300] Opening '/data/transcodes/56330b9d4cc1398765263a4770ae6f32412.ts' for writing
[hls @ 0x55b04ce66300] Opening '/data/transcodes/56330b9d4cc1398765263a4770ae6f32413.ts' for writing
[hls @ 0x55b04ce66300] Opening '/data/transcodes/56330b9d4cc1398765263a4770ae6f32414.ts' for writing
frame=62274 fps=1003 q=-1.0 size=N/A time=00:41:12.58 bitrate=N/A speed=39.8x    
[hls @ 0x55b04ce66300] Opening '/data/transcodes/56330b9d4cc1398765263a4770ae6f32415.ts' for writing
[hls @ 0x55b04ce66300] Opening '/data/transcodes/56330b9d4cc1398765263a4770ae6f32416.ts' for writing
[hls @ 0x55b04ce66300] Opening '/data/transcodes/56330b9d4cc1398765263a4770ae6f32417.ts' for writing
frame=62769 fps=1003 q=-1.0 size=N/A time=00:41:32.12 bitrate=N/A speed=39.8x    
[hls @ 0x55b04ce66300] Opening '/data/transcodes/56330b9d4cc1398765263a4770ae6f32418.ts' for writing
[hls @ 0x55b04ce66300] Opening '/data/transcodes/56330b9d4cc1398765263a4770ae6f32419.ts' for writing
[hls @ 0x55b04ce66300] Opening '/data/transcodes/56330b9d4cc1398765263a4770ae6f32420.ts' for writing
frame=63276 fps=1003 q=-1.0 size=N/A time=00:41:52.47 bitrate=N/A speed=39.8x    
[hls @ 0x55b04ce66300] Opening '/data/transcodes/56330b9d4cc1398765263a4770ae6f32421.ts' for writing
[hls @ 0x55b04ce66300] Opening '/data/transcodes/56330b9d4cc1398765263a4770ae6f32422.ts' for writing
[hls @ 0x55b04ce66300] Opening '/data/transcodes/56330b9d4cc1398765263a4770ae6f32423.ts' for writing
frame=63743 fps=1002 q=-1.0 size=N/A time=00:42:11.20 bitrate=N/A speed=39.8x    
[hls @ 0x55b04ce66300] Opening '/data/transcodes/56330b9d4cc1398765263a4770ae6f32424.ts' for writing
[hls @ 0x55b04ce66300] Opening '/data/transcodes/56330b9d4cc1398765263a4770ae6f32425.ts' for writing
[hls @ 0x55b04ce66300] Opening '/data/transcodes/56330b9d4cc1398765263a4770ae6f32426.ts' for writing
frame=64193 fps=1002 q=-1.0 size=N/A time=00:42:29.14 bitrate=N/A speed=39.8x    
[hls @ 0x55b04ce66300] Opening '/data/transcodes/56330b9d4cc1398765263a4770ae6f32427.ts' for writing
[hls @ 0x55b04ce66300] Opening '/data/transcodes/56330b9d4cc1398765263a4770ae6f32428.ts' for writing
[hls @ 0x55b04ce66300] Opening '/data/transcodes/56330b9d4cc1398765263a4770ae6f32429.ts' for writing
[hls @ 0x55b04ce66300] Opening '/data/transcodes/56330b9d4cc1398765263a4770ae6f32430.ts' for writing
frame=64721 fps=1002 q=-1.0 size=N/A time=00:42:50.30 bitrate=N/A speed=39.8x    
[hls @ 0x55b04ce66300] Opening '/data/transcodes/56330b9d4cc1398765263a4770ae6f32431.ts' for writing
[hls @ 0x55b04ce66300] Opening '/data/transcodes/56330b9d4cc1398765263a4770ae6f32432.ts' for writing
[hls @ 0x55b04ce66300] Opening '/data/transcodes/56330b9d4cc1398765263a4770ae6f32433.ts' for writing
frame=65204 fps=1002 q=-1.0 size=N/A time=00:43:09.53 bitrate=N/A speed=39.8x    
[hls @ 0x55b04ce66300] Opening '/data/transcodes/56330b9d4cc1398765263a4770ae6f32434.ts' for writing
[hls @ 0x55b04ce66300] Opening '/data/transcodes/56330b9d4cc1398765263a4770ae6f32435.ts' for writing
[hls @ 0x55b04ce66300] Opening '/data/transcodes/56330b9d4cc1398765263a4770ae6f32436.ts' for writing
[hls @ 0x55b04ce66300] Opening '/data/transcodes/56330b9d4cc1398765263a4770ae6f32437.ts' for writing
frame=65717 fps=1002 q=-1.0 size=N/A time=00:43:30.13 bitrate=N/A speed=39.8x    
[hls @ 0x55b04ce66300] Opening '/data/transcodes/56330b9d4cc1398765263a4770ae6f32438.ts' for writing
[hls @ 0x55b04ce66300] Opening '/data/transcodes/56330b9d4cc1398765263a4770ae6f32439.ts' for writing
[hls @ 0x55b04ce66300] Opening '/data/transcodes/56330b9d4cc1398765263a4770ae6f32440.ts' for writing
frame=66187 fps=1001 q=-1.0 size=N/A time=00:43:49.01 bitrate=N/A speed=39.8x    
[hls @ 0x55b04ce66300] Opening '/data/transcodes/56330b9d4cc1398765263a4770ae6f32441.ts' for writing
[hls @ 0x55b04ce66300] Opening '/data/transcodes/56330b9d4cc1398765263a4770ae6f32442.ts' for writing
[hls @ 0x55b04ce66300] Opening '/data/transcodes/56330b9d4cc1398765263a4770ae6f32443.ts' for writing
frame=66643 fps=1001 q=-1.0 size=N/A time=00:44:07.30 bitrate=N/A speed=39.8x    
[hls @ 0x55b04ce66300] Opening '/data/transcodes/56330b9d4cc1398765263a4770ae6f32444.ts' for writing
[hls @ 0x55b04ce66300] Opening '/data/transcodes/56330b9d4cc1398765263a4770ae6f32445.ts' for writing
[hls @ 0x55b04ce66300] Opening '/data/transcodes/56330b9d4cc1398765263a4770ae6f32446.ts' for writing
frame=67169 fps=1001 q=-1.0 size=N/A time=00:44:28.29 bitrate=N/A speed=39.8x    
[hls @ 0x55b04ce66300] Opening '/data/transcodes/56330b9d4cc1398765263a4770ae6f32447.ts' for writing
[hls @ 0x55b04ce66300] Opening '/data/transcodes/56330b9d4cc1398765263a4770ae6f32448.ts' for writing
[hls @ 0x55b04ce66300] Opening '/data/transcodes/56330b9d4cc1398765263a4770ae6f32449.ts' for writing
[hls @ 0x55b04ce66300] Opening '/data/transcodes/56330b9d4cc1398765263a4770ae6f32450.ts' for writing
frame=67670 fps=1001 q=-1.0 size=N/A time=00:44:48.26 bitrate=N/A speed=39.8x    
[hls @ 0x55b04ce66300] Opening '/data/transcodes/56330b9d4cc1398765263a4770ae6f32451.ts' for writing
[hls @ 0x55b04ce66300] Opening '/data/transcodes/56330b9d4cc1398765263a4770ae6f32452.ts' for writing
[hls @ 0x55b04ce66300] Opening '/data/transcodes/56330b9d4cc1398765263a4770ae6f32453.ts' for writing
frame=68206 fps=1002 q=-1.0 size=N/A time=00:45:09.53 bitrate=N/A speed=39.8x    
[hls @ 0x55b04ce66300] Opening '/data/transcodes/56330b9d4cc1398765263a4770ae6f32454.ts' for writing
[hls @ 0x55b04ce66300] Opening '/data/transcodes/56330b9d4cc1398765263a4770ae6f32455.ts' for writing
[hls @ 0x55b04ce66300] Opening '/data/transcodes/56330b9d4cc1398765263a4770ae6f32456.ts' for writing
[hls @ 0x55b04ce66300] Opening '/data/transcodes/56330b9d4cc1398765263a4770ae6f32457.ts' for writing
frame=68725 fps=1002 q=-1.0 size=N/A time=00:45:30.56 bitrate=N/A speed=39.8x    
[hls @ 0x55b04ce66300] Opening '/data/transcodes/56330b9d4cc1398765263a4770ae6f32458.ts' for writing
[hls @ 0x55b04ce66300] Opening '/data/transcodes/56330b9d4cc1398765263a4770ae6f32459.ts' for writing
[hls @ 0x55b04ce66300] Opening '/data/transcodes/56330b9d4cc1398765263a4770ae6f32460.ts' for writing
frame=69244 fps=1002 q=-1.0 size=N/A time=00:45:51.06 bitrate=N/A speed=39.8x    
[hls @ 0x55b04ce66300] Opening '/data/transcodes/56330b9d4cc1398765263a4770ae6f32461.ts' for writing
[hls @ 0x55b04ce66300] Opening '/data/transcodes/56330b9d4cc1398765263a4770ae6f32462.ts' for writing
[hls @ 0x55b04ce66300] Opening '/data/transcodes/56330b9d4cc1398765263a4770ae6f32463.ts' for writing
[hls @ 0x55b04ce66300] Opening '/data/transcodes/56330b9d4cc1398765263a4770ae6f32464.ts' for writing
frame=69781 fps=1003 q=-1.0 size=N/A time=00:46:12.57 bitrate=N/A speed=39.8x    
[hls @ 0x55b04ce66300] Opening '/data/transcodes/56330b9d4cc1398765263a4770ae6f32465.ts' for writing
[hls @ 0x55b04ce66300] Opening '/data/transcodes/56330b9d4cc1398765263a4770ae6f32466.ts' for writing
[hls @ 0x55b04ce66300] Opening '/data/transcodes/56330b9d4cc1398765263a4770ae6f32467.ts' for writing
frame=70312 fps=1003 q=-1.0 size=N/A time=00:46:33.94 bitrate=N/A speed=39.9x    
[hls @ 0x55b04ce66300] Opening '/data/transcodes/56330b9d4cc1398765263a4770ae6f32468.ts' for writing
[hls @ 0x55b04ce66300] Opening '/data/transcodes/56330b9d4cc1398765263a4770ae6f32469.ts' for writing
[hls @ 0x55b04ce66300] Opening '/data/transcodes/56330b9d4cc1398765263a4770ae6f32470.ts' for writing
[hls @ 0x55b04ce66300] Opening '/data/transcodes/56330b9d4cc1398765263a4770ae6f32471.ts' for writing
frame=70801 fps=1003 q=-1.0 size=N/A time=00:46:53.33 bitrate=N/A speed=39.8x    
[hls @ 0x55b04ce66300] Opening '/data/transcodes/56330b9d4cc1398765263a4770ae6f32472.ts' for writing
[hls @ 0x55b04ce66300] Opening '/data/transcodes/56330b9d4cc1398765263a4770ae6f32473.ts' for writing
[hls @ 0x55b04ce66300] Opening '/data/transcodes/56330b9d4cc1398765263a4770ae6f32474.ts' for writing
frame=71301 fps=1003 q=-1.0 size=N/A time=00:47:13.41 bitrate=N/A speed=39.8x    
[hls @ 0x55b04ce66300] Opening '/data/transcodes/56330b9d4cc1398765263a4770ae6f32475.ts' for writing
[hls @ 0x55b04ce66300] Opening '/data/transcodes/56330b9d4cc1398765263a4770ae6f32476.ts' for writing
[hls @ 0x55b04ce66300] Opening '/data/transcodes/56330b9d4cc1398765263a4770ae6f32477.ts' for writing
frame=71801 fps=1003 q=-1.0 size=N/A time=00:47:33.33 bitrate=N/A speed=39.8x    
[hls @ 0x55b04ce66300] Opening '/data/transcodes/56330b9d4cc1398765263a4770ae6f32478.ts' for writing
[hls @ 0x55b04ce66300] Opening '/data/transcodes/56330b9d4cc1398765263a4770ae6f32479.ts' for writing
[hls @ 0x55b04ce66300] Opening '/data/transcodes/56330b9d4cc1398765263a4770ae6f32480.ts' for writing
frame=72281 fps=1002 q=-1.0 size=N/A time=00:47:52.66 bitrate=N/A speed=39.8x    
[hls @ 0x55b04ce66300] Opening '/data/transcodes/56330b9d4cc1398765263a4770ae6f32481.ts' for writing
[hls @ 0x55b04ce66300] Opening '/data/transcodes/56330b9d4cc1398765263a4770ae6f32482.ts' for writing
[hls @ 0x55b04ce66300] Opening '/data/transcodes/56330b9d4cc1398765263a4770ae6f32483.ts' for writing
[hls @ 0x55b04ce66300] Opening '/data/transcodes/56330b9d4cc1398765263a4770ae6f32484.ts' for writing
frame=72775 fps=1002 q=-1.0 size=N/A time=00:48:12.57 bitrate=N/A speed=39.8x    
[hls @ 0x55b04ce66300] Opening '/data/transcodes/56330b9d4cc1398765263a4770ae6f32485.ts' for writing
[hls @ 0x55b04ce66300] Opening '/data/transcodes/56330b9d4cc1398765263a4770ae6f32486.ts' for writing
[hls @ 0x55b04ce66300] Opening '/data/transcodes/56330b9d4cc1398765263a4770ae6f32487.ts' for writing
frame=73213 fps=1001 q=-1.0 size=N/A time=00:48:29.82 bitrate=N/A speed=39.8x    
[hls @ 0x55b04ce66300] Opening '/data/transcodes/56330b9d4cc1398765263a4770ae6f32488.ts' for writing
[hls @ 0x55b04ce66300] Opening '/data/transcodes/56330b9d4cc1398765263a4770ae6f32489.ts' for writing
[hls @ 0x55b04ce66300] Opening '/data/transcodes/56330b9d4cc1398765263a4770ae6f32490.ts' for writing
frame=73681 fps=1001 q=-1.0 size=N/A time=00:48:48.83 bitrate=N/A speed=39.8x    
[hls @ 0x55b04ce66300] Opening '/data/transcodes/56330b9d4cc1398765263a4770ae6f32491.ts' for writing
[hls @ 0x55b04ce66300] Opening '/data/transcodes/56330b9d4cc1398765263a4770ae6f32492.ts' for writing
[hls @ 0x55b04ce66300] Opening '/data/transcodes/56330b9d4cc1398765263a4770ae6f32493.ts' for writing
[hls @ 0x55b04ce66300] Opening '/data/transcodes/56330b9d4cc1398765263a4770ae6f32494.ts' for writing
frame=74280 fps=1002 q=-1.0 size=N/A time=00:49:12.79 bitrate=N/A speed=39.8x    
[hls @ 0x55b04ce66300] Opening '/data/transcodes/56330b9d4cc1398765263a4770ae6f32495.ts' for writing
[hls @ 0x55b04ce66300] Opening '/data/transcodes/56330b9d4cc1398765263a4770ae6f32496.ts' for writing
[hls @ 0x55b04ce66300] Opening '/data/transcodes/56330b9d4cc1398765263a4770ae6f32497.ts' for writing
frame=74811 fps=1003 q=-1.0 size=N/A time=00:49:33.91 bitrate=N/A speed=39.9x    
[hls @ 0x55b04ce66300] Opening '/data/transcodes/56330b9d4cc1398765263a4770ae6f32498.ts' for writing
[hls @ 0x55b04ce66300] Opening '/data/transcodes/56330b9d4cc1398765263a4770ae6f32499.ts' for writing
[hls @ 0x55b04ce66300] Opening '/data/transcodes/56330b9d4cc1398765263a4770ae6f32500.ts' for writing
[hls @ 0x55b04ce66300] Opening '/data/transcodes/56330b9d4cc1398765263a4770ae6f32501.ts' for writing
frame=75401 fps=1004 q=-1.0 size=N/A time=00:49:57.31 bitrate=N/A speed=39.9x    
[hls @ 0x55b04ce66300] Opening '/data/transcodes/56330b9d4cc1398765263a4770ae6f32502.ts' for writing
[hls @ 0x55b04ce66300] Opening '/data/transcodes/56330b9d4cc1398765263a4770ae6f32503.ts' for writing
[hls @ 0x55b04ce66300] Opening '/data/transcodes/56330b9d4cc1398765263a4770ae6f32504.ts' for writing
frame=75863 fps=1003 q=-1.0 size=N/A time=00:50:15.89 bitrate=N/A speed=39.9x    
[hls @ 0x55b04ce66300] Opening '/data/transcodes/56330b9d4cc1398765263a4770ae6f32505.ts' for writing
[hls @ 0x55b04ce66300] Opening '/data/transcodes/56330b9d4cc1398765263a4770ae6f32506.ts' for writing
[hls @ 0x55b04ce66300] Opening '/data/transcodes/56330b9d4cc1398765263a4770ae6f32507.ts' for writing
frame=76324 fps=1003 q=-1.0 size=N/A time=00:50:34.52 bitrate=N/A speed=39.9x    
[hls @ 0x55b04ce66300] Opening '/data/transcodes/56330b9d4cc1398765263a4770ae6f32508.ts' for writing
[hls @ 0x55b04ce66300] Opening '/data/transcodes/56330b9d4cc1398765263a4770ae6f32509.ts' for writing
[hls @ 0x55b04ce66300] Opening '/data/transcodes/56330b9d4cc1398765263a4770ae6f32510.ts' for writing
frame=76742 fps=1002 q=-1.0 size=N/A time=00:50:51.09 bitrate=N/A speed=39.8x    
[hls @ 0x55b04ce66300] Opening '/data/transcodes/56330b9d4cc1398765263a4770ae6f32511.ts' for writing
[hls @ 0x55b04ce66300] Opening '/data/transcodes/56330b9d4cc1398765263a4770ae6f32512.ts' for writing
[hls @ 0x55b04ce66300] Opening '/data/transcodes/56330b9d4cc1398765263a4770ae6f32513.ts' for writing
frame=77184 fps=1001 q=-1.0 size=N/A time=00:51:08.82 bitrate=N/A speed=39.8x    
[hls @ 0x55b04ce66300] Opening '/data/transcodes/56330b9d4cc1398765263a4770ae6f32514.ts' for writing
[hls @ 0x55b04ce66300] Opening '/data/transcodes/56330b9d4cc1398765263a4770ae6f32515.ts' for writing
[hls @ 0x55b04ce66300] Opening '/data/transcodes/56330b9d4cc1398765263a4770ae6f32516.ts' for writing
[hls @ 0x55b04ce66300] Opening '/data/transcodes/56330b9d4cc1398765263a4770ae6f32517.ts' for writing
frame=77711 fps=1001 q=-1.0 size=N/A time=00:51:29.92 bitrate=N/A speed=39.8x    
[hls @ 0x55b04ce66300] Opening '/data/transcodes/56330b9d4cc1398765263a4770ae6f32518.ts' for writing
[hls @ 0x55b04ce66300] Opening '/data/transcodes/56330b9d4cc1398765263a4770ae6f32519.ts' for writing
[hls @ 0x55b04ce66300] Opening '/data/transcodes/56330b9d4cc1398765263a4770ae6f32520.ts' for writing
frame=78244 fps=1002 q=-1.0 size=N/A time=00:51:51.04 bitrate=N/A speed=39.8x    
[hls @ 0x55b04ce66300] Opening '/data/transcodes/56330b9d4cc1398765263a4770ae6f32521.ts' for writing
[hls @ 0x55b04ce66300] Opening '/data/transcodes/56330b9d4cc1398765263a4770ae6f32522.ts' for writing
[hls @ 0x55b04ce66300] Opening '/data/transcodes/56330b9d4cc1398765263a4770ae6f32523.ts' for writing
frame=78737 fps=1002 q=-1.0 size=N/A time=00:52:11.01 bitrate=N/A speed=39.8x    
[hls @ 0x55b04ce66300] Opening '/data/transcodes/56330b9d4cc1398765263a4770ae6f32524.ts' for writing
[hls @ 0x55b04ce66300] Opening '/data/transcodes/56330b9d4cc1398765263a4770ae6f32525.ts' for writing
[hls @ 0x55b04ce66300] Opening '/data/transcodes/56330b9d4cc1398765263a4770ae6f32526.ts' for writing
[hls @ 0x55b04ce66300] Opening '/data/transcodes/56330b9d4cc1398765263a4770ae6f32527.ts' for writing
frame=79255 fps=1002 q=-1.0 size=N/A time=00:52:31.77 bitrate=N/A speed=39.8x    
[hls @ 0x55b04ce66300] Opening '/data/transcodes/56330b9d4cc1398765263a4770ae6f32528.ts' for writing
[hls @ 0x55b04ce66300] Opening '/data/transcodes/56330b9d4cc1398765263a4770ae6f32529.ts' for writing
[hls @ 0x55b04ce66300] Opening '/data/transcodes/56330b9d4cc1398765263a4770ae6f32530.ts' for writing
[hls @ 0x55b04ce66300] Opening '/data/transcodes/56330b9d4cc1398765263a4770ae6f32531.ts' for writing
frame=79832 fps=1003 q=-1.0 size=N/A time=00:52:54.55 bitrate=N/A speed=39.9x    
[hls @ 0x55b04ce66300] Opening '/data/transcodes/56330b9d4cc1398765263a4770ae6f32532.ts' for writing
[hls @ 0x55b04ce66300] Opening '/data/transcodes/56330b9d4cc1398765263a4770ae6f32533.ts' for writing
[hls @ 0x55b04ce66300] Opening '/data/transcodes/56330b9d4cc1398765263a4770ae6f32534.ts' for writing
[hls @ 0x55b04ce66300] Opening '/data/transcodes/56330b9d4cc1398765263a4770ae6f32535.ts' for writing
frame=80419 fps=1004 q=-1.0 size=N/A time=00:53:18.27 bitrate=N/A speed=39.9x    
[hls @ 0x55b04ce66300] Opening '/data/transcodes/56330b9d4cc1398765263a4770ae6f32536.ts' for writing
[hls @ 0x55b04ce66300] Opening '/data/transcodes/56330b9d4cc1398765263a4770ae6f32537.ts' for writing
[hls @ 0x55b04ce66300] Opening '/data/transcodes/56330b9d4cc1398765263a4770ae6f32538.ts' for writing
[hls @ 0x55b04ce66300] Opening '/data/transcodes/56330b9d4cc1398765263a4770ae6f32539.ts' for writing
frame=81024 fps=1005 q=-1.0 size=N/A time=00:53:42.49 bitrate=N/A speed=  40x    
[hls @ 0x55b04ce66300] Opening '/data/transcodes/56330b9d4cc1398765263a4770ae6f32540.ts' for writing
[hls @ 0x55b04ce66300] Opening '/data/transcodes/56330b9d4cc1398765263a4770ae6f32541.ts' for writing
[hls @ 0x55b04ce66300] Opening '/data/transcodes/56330b9d4cc1398765263a4770ae6f32542.ts' for writing
frame=81595 fps=1006 q=-1.0 size=N/A time=00:54:05.18 bitrate=N/A speed=  40x    
[hls @ 0x55b04ce66300] Opening '/data/transcodes/56330b9d4cc1398765263a4770ae6f32543.ts' for writing
[hls @ 0x55b04ce66300] Opening '/data/transcodes/56330b9d4cc1398765263a4770ae6f32544.ts' for writing
[hls @ 0x55b04ce66300] Opening '/data/transcodes/56330b9d4cc1398765263a4770ae6f32545.ts' for writing
[hls @ 0x55b04ce66300] Opening '/data/transcodes/56330b9d4cc1398765263a4770ae6f32546.ts' for writing
frame=82082 fps=1006 q=-1.0 size=N/A time=00:54:24.79 bitrate=N/A speed=  40x    
[hls @ 0x55b04ce66300] Opening '/data/transcodes/56330b9d4cc1398765263a4770ae6f32547.ts' for writing
[hls @ 0x55b04ce66300] Opening '/data/transcodes/56330b9d4cc1398765263a4770ae6f32548.ts' for writing
[hls @ 0x55b04ce66300] Opening '/data/transcodes/56330b9d4cc1398765263a4770ae6f32549.ts' for writing
[hls @ 0x55b04ce66300] Opening '/data/transcodes/56330b9d4cc1398765263a4770ae6f32550.ts' for writing
frame=82696 fps=1007 q=-1.0 size=N/A time=00:54:49.28 bitrate=N/A speed=40.1x    
[hls @ 0x55b04ce66300] Opening '/data/transcodes/56330b9d4cc1398765263a4770ae6f32551.ts' for writing
[hls @ 0x55b04ce66300] Opening '/data/transcodes/56330b9d4cc1398765263a4770ae6f32552.ts' for writing
[hls @ 0x55b04ce66300] Opening '/data/transcodes/56330b9d4cc1398765263a4770ae6f32553.ts' for writing
[hls @ 0x55b04ce66300] Opening '/data/transcodes/56330b9d4cc1398765263a4770ae6f32554.ts' for writing
frame=83251 fps=1008 q=-1.0 size=N/A time=00:55:11.42 bitrate=N/A speed=40.1x    
[hls @ 0x55b04ce66300] Opening '/data/transcodes/56330b9d4cc1398765263a4770ae6f32555.ts' for writing
[hls @ 0x55b04ce66300] Opening '/data/transcodes/56330b9d4cc1398765263a4770ae6f32556.ts' for writing
[hls @ 0x55b04ce66300] Opening '/data/transcodes/56330b9d4cc1398765263a4770ae6f32557.ts' for writing
frame=83778 fps=1008 q=-1.0 size=N/A time=00:55:32.57 bitrate=N/A speed=40.1x    
[hls @ 0x55b04ce66300] Opening '/data/transcodes/56330b9d4cc1398765263a4770ae6f32558.ts' for writing
[hls @ 0x55b04ce66300] Opening '/data/transcodes/56330b9d4cc1398765263a4770ae6f32559.ts' for writing
[hls @ 0x55b04ce66300] Opening '/data/transcodes/56330b9d4cc1398765263a4770ae6f32560.ts' for writing
[hls @ 0x55b04ce66300] Opening '/data/transcodes/56330b9d4cc1398765263a4770ae6f32561.ts' for writing
frame=84349 fps=1009 q=-1.0 size=N/A time=00:55:55.26 bitrate=N/A speed=40.1x    
[hls @ 0x55b04ce66300] Opening '/data/transcodes/56330b9d4cc1398765263a4770ae6f32562.ts' for writing
[hls @ 0x55b04ce66300] Opening '/data/transcodes/56330b9d4cc1398765263a4770ae6f32563.ts' for writing
[hls @ 0x55b04ce66300] Opening '/data/transcodes/56330b9d4cc1398765263a4770ae6f32564.ts' for writing
[hls @ 0x55b04ce66300] Opening '/data/transcodes/56330b9d4cc1398765263a4770ae6f32565.ts' for writing
frame=84964 fps=1010 q=-1.0 size=N/A time=00:56:20.05 bitrate=N/A speed=40.2x    
[hls @ 0x55b04ce66300] Opening '/data/transcodes/56330b9d4cc1398765263a4770ae6f32566.ts' for writing
[hls @ 0x55b04ce66300] Opening '/data/transcodes/56330b9d4cc1398765263a4770ae6f32567.ts' for writing
[hls @ 0x55b04ce66300] Opening '/data/transcodes/56330b9d4cc1398765263a4770ae6f32568.ts' for writing
[hls @ 0x55b04ce66300] Opening '/data/transcodes/56330b9d4cc1398765263a4770ae6f32569.ts' for writing
frame=85526 fps=1011 q=-1.0 size=N/A time=00:56:42.56 bitrate=N/A speed=40.2x    
[hls @ 0x55b04ce66300] Opening '/data/transcodes/56330b9d4cc1398765263a4770ae6f32570.ts' for writing
[hls @ 0x55b04ce66300] Opening '/data/transcodes/56330b9d4cc1398765263a4770ae6f32571.ts' for writing
[hls @ 0x55b04ce66300] Opening '/data/transcodes/56330b9d4cc1398765263a4770ae6f32572.ts' for writing
frame=86067 fps=1011 q=-1.0 size=N/A time=00:57:04.06 bitrate=N/A speed=40.2x    
[hls @ 0x55b04ce66300] Opening '/data/transcodes/56330b9d4cc1398765263a4770ae6f32573.ts' for writing
[hls @ 0x55b04ce66300] Opening '/data/transcodes/56330b9d4cc1398765263a4770ae6f32574.ts' for writing
[hls @ 0x55b04ce66300] Opening '/data/transcodes/56330b9d4cc1398765263a4770ae6f32575.ts' for writing
[hls @ 0x55b04ce66300] Opening '/data/transcodes/56330b9d4cc1398765263a4770ae6f32576.ts' for writing
frame=86607 fps=1012 q=-1.0 size=N/A time=00:57:25.72 bitrate=N/A speed=40.2x    
[hls @ 0x55b04ce66300] Opening '/data/transcodes/56330b9d4cc1398765263a4770ae6f32577.ts' for writing
[hls @ 0x55b04ce66300] Opening '/data/transcodes/56330b9d4cc1398765263a4770ae6f32578.ts' for writing
[hls @ 0x55b04ce66300] Opening '/data/transcodes/56330b9d4cc1398765263a4770ae6f32579.ts' for writing
frame=87075 fps=1011 q=-1.0 size=N/A time=00:57:44.32 bitrate=N/A speed=40.2x    
[hls @ 0x55b04ce66300] Opening '/data/transcodes/56330b9d4cc1398765263a4770ae6f32580.ts' for writing
[hls @ 0x55b04ce66300] Opening '/data/transcodes/56330b9d4cc1398765263a4770ae6f32581.ts' for writing
[hls @ 0x55b04ce66300] Opening '/data/transcodes/56330b9d4cc1398765263a4770ae6f32582.ts' for writing
frame=87572 fps=1011 q=-1.0 size=N/A time=00:58:04.31 bitrate=N/A speed=40.2x    
[hls @ 0x55b04ce66300] Opening '/data/transcodes/56330b9d4cc1398765263a4770ae6f32583.ts' for writing
[hls @ 0x55b04ce66300] Opening '/data/transcodes/56330b9d4cc1398765263a4770ae6f32584.ts' for writing
[hls @ 0x55b04ce66300] Opening '/data/transcodes/56330b9d4cc1398765263a4770ae6f32585.ts' for writing
frame=88037 fps=1011 q=-1.0 size=N/A time=00:58:23.04 bitrate=N/A speed=40.2x    
[hls @ 0x55b04ce66300] Opening '/data/transcodes/56330b9d4cc1398765263a4770ae6f32586.ts' for writing
[hls @ 0x55b04ce66300] Opening '/data/transcodes/56330b9d4cc1398765263a4770ae6f32587.ts' for writing
[hls @ 0x55b04ce66300] Opening '/data/transcodes/56330b9d4cc1398765263a4770ae6f32588.ts' for writing
[hls @ 0x55b04ce66300] Opening '/data/transcodes/56330b9d4cc1398765263a4770ae6f32589.ts' for writing
frame=88532 fps=1010 q=-1.0 size=N/A time=00:58:42.65 bitrate=N/A speed=40.2x    
[hls @ 0x55b04ce66300] Opening '/data/transcodes/56330b9d4cc1398765263a4770ae6f32590.ts' for writing
[hls @ 0x55b04ce66300] Opening '/data/transcodes/56330b9d4cc1398765263a4770ae6f32591.ts' for writing
[hls @ 0x55b04ce66300] Opening '/data/transcodes/56330b9d4cc1398765263a4770ae6f32592.ts' for writing
frame=89031 fps=1010 q=-1.0 size=N/A time=00:59:02.74 bitrate=N/A speed=40.2x    
[hls @ 0x55b04ce66300] Opening '/data/transcodes/56330b9d4cc1398765263a4770ae6f32593.ts' for writing
[hls @ 0x55b04ce66300] Opening '/data/transcodes/56330b9d4cc1398765263a4770ae6f32594.ts' for writing
[hls @ 0x55b04ce66300] Opening '/data/transcodes/56330b9d4cc1398765263a4770ae6f32595.ts' for writing
frame=89537 fps=1010 q=-1.0 size=N/A time=00:59:22.97 bitrate=N/A speed=40.2x    
[hls @ 0x55b04ce66300] Opening '/data/transcodes/56330b9d4cc1398765263a4770ae6f32596.ts' for writing
[hls @ 0x55b04ce66300] Opening '/data/transcodes/56330b9d4cc1398765263a4770ae6f32597.ts' for writing
[hls @ 0x55b04ce66300] Opening '/data/transcodes/56330b9d4cc1398765263a4770ae6f32598.ts' for writing
[hls @ 0x55b04ce66300] Opening '/data/transcodes/56330b9d4cc1398765263a4770ae6f32599.ts' for writing
frame=90087 fps=1011 q=-1.0 size=N/A time=00:59:44.96 bitrate=N/A speed=40.2x    
[hls @ 0x55b04ce66300] Opening '/data/transcodes/56330b9d4cc1398765263a4770ae6f32600.ts' for writing
[hls @ 0x55b04ce66300] Opening '/data/transcodes/56330b9d4cc1398765263a4770ae6f32601.ts' for writing
[hls @ 0x55b04ce66300] Opening '/data/transcodes/56330b9d4cc1398765263a4770ae6f32602.ts' for writing
[hls @ 0x55b04ce66300] Opening '/data/transcodes/56330b9d4cc1398765263a4770ae6f32603.ts' for writing
[hls @ 0x55b04ce66300] Opening '/data/transcodes/56330b9d4cc1398765263a4770ae6f32604.ts' for writing
frame=90782 fps=1013 q=-1.0 size=N/A time=01:00:12.74 bitrate=N/A speed=40.3x    
[hls @ 0x55b04ce66300] Opening '/data/transcodes/56330b9d4cc1398765263a4770ae6f32605.ts' for writing
[hls @ 0x55b04ce66300] Opening '/data/transcodes/56330b9d4cc1398765263a4770ae6f32606.ts' for writing
[hls @ 0x55b04ce66300] Opening '/data/transcodes/56330b9d4cc1398765263a4770ae6f32607.ts' for writing
[hls @ 0x55b04ce66300] Opening '/data/transcodes/56330b9d4cc1398765263a4770ae6f32608.ts' for writing
frame=91370 fps=1014 q=-1.0 size=N/A time=01:00:36.31 bitrate=N/A speed=40.4x    
[hls @ 0x55b04ce66300] Opening '/data/transcodes/56330b9d4cc1398765263a4770ae6f32609.ts' for writing
[hls @ 0x55b04ce66300] Opening '/data/transcodes/56330b9d4cc1398765263a4770ae6f32610.ts' for writing
[hls @ 0x55b04ce66300] Opening '/data/transcodes/56330b9d4cc1398765263a4770ae6f32611.ts' for writing
frame=91912 fps=1014 q=-1.0 size=N/A time=01:00:57.94 bitrate=N/A speed=40.4x    
[hls @ 0x55b04ce66300] Opening '/data/transcodes/56330b9d4cc1398765263a4770ae6f32612.ts' for writing
[hls @ 0x55b04ce66300] Opening '/data/transcodes/56330b9d4cc1398765263a4770ae6f32613.ts' for writing
[hls @ 0x55b04ce66300] Opening '/data/transcodes/56330b9d4cc1398765263a4770ae6f32614.ts' for writing
[hls @ 0x55b04ce66300] Opening '/data/transcodes/56330b9d4cc1398765263a4770ae6f32615.ts' for writing
frame=92439 fps=1015 q=-1.0 size=N/A time=01:01:18.93 bitrate=N/A speed=40.4x    
[hls @ 0x55b04ce66300] Opening '/data/transcodes/56330b9d4cc1398765263a4770ae6f32616.ts' for writing
[hls @ 0x55b04ce66300] Opening '/data/transcodes/56330b9d4cc1398765263a4770ae6f32617.ts' for writing
[hls @ 0x55b04ce66300] Opening '/data/transcodes/56330b9d4cc1398765263a4770ae6f32618.ts' for writing
frame=92989 fps=1015 q=-1.0 size=N/A time=01:01:41.08 bitrate=N/A speed=40.4x    
[hls @ 0x55b04ce66300] Opening '/data/transcodes/56330b9d4cc1398765263a4770ae6f32619.ts' for writing
[hls @ 0x55b04ce66300] Opening '/data/transcodes/56330b9d4cc1398765263a4770ae6f32620.ts' for writing
[hls @ 0x55b04ce66300] Opening '/data/transcodes/56330b9d4cc1398765263a4770ae6f32621.ts' for writing
[hls @ 0x55b04ce66300] Opening '/data/transcodes/56330b9d4cc1398765263a4770ae6f32622.ts' for writing
frame=93542 fps=1015 q=-1.0 size=N/A time=01:02:03.29 bitrate=N/A speed=40.4x    
[hls @ 0x55b04ce66300] Opening '/data/transcodes/56330b9d4cc1398765263a4770ae6f32623.ts' for writing
[hls @ 0x55b04ce66300] Opening '/data/transcodes/56330b9d4cc1398765263a4770ae6f32624.ts' for writing
frame=93645 fps=1016 q=-1.0 Lsize=N/A time=01:02:07.19 bitrate=N/A speed=40.4x    
video:2644362kB audio:117059kB subtitle:0kB other streams:0kB global headers:0kB muxing overhead: unknown